<svg width="26" height="26" viewBox="0 0 26 26" fill="none" xmlns="http://www.w3.org/2000/svg">
<path fill-rule="evenodd" clip-rule="evenodd" d="M4.25 8C6.32107 8 8 6.32107 8 4.25C8 2.17893 6.32107 0.5 4.25 0.5C2.17893 0.5 0.5 2.17893 0.5 4.25C0.5 6.32107 2.17893 8 4.25 8ZM11 3C11 2.44772 11.4477 2 12 2H16C16.5523 2 17 2.44772 17 3V4C17 4.55229 16.5523 5 16 5H12C11.4477 5 11 4.55229 11 4V3ZM12 23C11.4477 23 11 23.4477 11 24V25C11 25.5523 11.4477 26 12 26H16C16.5523 26 17 25.5523 17 25V24C17 23.4477 16.5523 23 16 23H12ZM2 12C2 11.4477 2.44772 11 3 11H4C4.55229 11 5 11.4477 5 12V16C5 16.5523 4.55229 17 4 17H3C2.44772 17 2 16.5523 2 16V12ZM24 11C23.4477 11 23 11.4477 23 12V16C23 16.5523 23.4477 17 24 17H25C25.5523 17 26 16.5523 26 16V12C26 11.4477 25.5523 11 25 11H24Z" fill="#1B76FF"/>
</svg>
