<svg width="25" height="24" viewBox="0 0 25 24" fill="none" xmlns="http://www.w3.org/2000/svg">
<path d="M14.0034 12.7474V8.16406C14.0034 6.32311 12.511 4.83073 10.67 4.83073C8.82909 4.83073 7.33671 6.32311 7.33671 8.16406V12.7474C7.33671 15.739 9.76184 18.1641 12.7534 18.1641C15.745 18.1641 18.17 15.739 18.17 12.7474V4.83073H19.8367V12.7474C19.8367 16.6594 16.6654 19.8307 12.7534 19.8307C8.84136 19.8307 5.67004 16.6594 5.67004 12.7474V8.16406C5.67004 5.40264 7.90862 3.16406 10.67 3.16406C13.4315 3.16406 15.67 5.40264 15.67 8.16406V12.7474C15.67 14.3582 14.3642 15.6641 12.7534 15.6641C11.1425 15.6641 9.83671 14.3582 9.83671 12.7474V8.16406H11.5034V12.7474C11.5034 13.4377 12.063 13.9974 12.7534 13.9974C13.4437 13.9974 14.0034 13.4377 14.0034 12.7474Z" fill="#FB651E"/>
</svg>
