<svg width="20" height="20" viewBox="0 0 20 20" fill="none" xmlns="http://www.w3.org/2000/svg">
<path fill-rule="evenodd" clip-rule="evenodd" d="M4.16675 15V7.5H9.16675V15H4.16675ZM7.50008 9.16667V13.3333H5.83341V9.16667H7.50008Z" fill="#FB651E"/>
<path fill-rule="evenodd" clip-rule="evenodd" d="M10.8334 15V7.5H15.8334V15H10.8334ZM14.1667 9.16667V13.3333H12.5001V9.16667H14.1667Z" fill="#FB651E"/>
<path fill-rule="evenodd" clip-rule="evenodd" d="M15.8334 14.9987H4.16675C3.70651 14.9987 3.33341 15.3718 3.33341 15.832C3.33341 16.2923 3.70651 16.6654 4.16675 16.6654H15.8334C16.2937 16.6654 16.6667 16.2923 16.6667 15.832C16.6667 15.3718 16.2937 14.9987 15.8334 14.9987ZM4.16675 13.332C2.78604 13.332 1.66675 14.4513 1.66675 15.832C1.66675 17.2127 2.78604 18.332 4.16675 18.332H15.8334C17.2141 18.332 18.3334 17.2127 18.3334 15.832C18.3334 14.4513 17.2141 13.332 15.8334 13.332H4.16675Z" fill="#FB651E"/>
<path fill-rule="evenodd" clip-rule="evenodd" d="M16.6667 6.66727V6.02734C16.6667 5.65934 16.4254 5.3349 16.0729 5.22915L10.2395 3.47916C10.0833 3.4323 9.91682 3.4323 9.76063 3.47915L3.92729 5.22915C3.5748 5.3349 3.33341 5.65934 3.33341 6.02734V6.66727C3.33341 7.1275 3.70651 7.5006 4.16675 7.5006H15.8334C16.2937 7.5006 16.6667 7.1275 16.6667 6.66727ZM3.44838 3.63278C2.39092 3.95002 1.66675 4.92332 1.66675 6.02734V6.66727C1.66675 8.04798 2.78604 9.16727 4.16675 9.16727H15.8334C17.2141 9.16727 18.3334 8.04798 18.3334 6.66727V6.02734C18.3334 4.92332 17.6092 3.95002 16.5518 3.63278L10.7185 1.88278C10.2499 1.7422 9.75031 1.7422 9.28171 1.88278L3.44838 3.63278Z" fill="#FB651E"/>
</svg>
