<svg width="30" height="30" viewBox="0 0 30 30" fill="none" xmlns="http://www.w3.org/2000/svg">
<circle opacity="0.6" cx="15" cy="15" r="15" fill="#FFF9F6"/>
<path d="M15 21.0938C15.6875 21.0938 16.25 20.5312 16.25 19.8438H13.75C13.75 20.5312 14.3125 21.0938 15 21.0938ZM18.75 17.3438V14.2188C18.75 12.3 17.7312 10.6937 15.9375 10.2687V9.84375C15.9375 9.325 15.5188 8.90625 15 8.90625C14.4812 8.90625 14.0625 9.325 14.0625 9.84375V10.2687C12.275 10.6937 11.25 12.2938 11.25 14.2188V17.3438L10 18.5938V19.2188H20V18.5938L18.75 17.3438ZM17.5 17.9688H12.5V14.2188C12.5 12.6688 13.4437 11.4062 15 11.4062C16.5563 11.4062 17.5 12.6688 17.5 14.2188V17.9688Z" fill="#FB651E"/>
</svg>
