<svg width="32" height="32" viewBox="0 0 32 32" fill="none" xmlns="http://www.w3.org/2000/svg">
<path d="M8.74237 25.1512C7.70891 25.1512 6.82795 24.7816 6.09948 24.0424C5.37101 23.3033 5.00678 22.4195 5.00678 21.391H3.46415C3.19097 21.391 2.96199 21.2986 2.77719 21.1138C2.5924 20.9291 2.5 20.7001 2.5 20.4269V17.5345C2.5 16.1418 2.98207 14.958 3.94622 13.9832C4.91037 13.0083 6.08877 12.5209 7.48142 12.5209H11.4987C11.7719 12.5209 12.0009 12.6133 12.1857 12.7981C12.3705 12.9829 12.4628 13.2119 12.4628 13.485V19.4627H17.6371L22.3614 13.5172V9.0821H19.3726C19.0994 9.0821 18.8704 8.98917 18.6856 8.8033C18.5008 8.61742 18.4084 8.38709 18.4084 8.11233C18.4084 7.83755 18.5008 7.6091 18.6856 7.42698C18.8704 7.24487 19.0994 7.15381 19.3726 7.15381H22.3614C22.8917 7.15381 23.3457 7.34262 23.7233 7.72024C24.1009 8.09787 24.2897 8.55182 24.2897 9.0821V13.5172C24.2897 13.7529 24.2529 13.9674 24.1791 14.1608C24.1054 14.3543 24.003 14.5361 23.8719 14.7063L19.1476 20.6519C18.9748 20.8818 18.7548 21.0625 18.4877 21.1939C18.2206 21.3253 17.9371 21.391 17.6371 21.391H12.4628C12.4628 22.4195 12.1011 23.3033 11.3777 24.0424C10.6543 24.7816 9.77585 25.1512 8.74237 25.1512ZM8.73482 23.2229C9.2276 23.2229 9.65075 23.0408 10.0043 22.6766C10.3578 22.3123 10.5346 21.8838 10.5346 21.391H6.93507C6.93507 21.8838 7.11184 22.3123 7.46536 22.6766C7.81888 23.0408 8.24203 23.2229 8.73482 23.2229ZM7.32073 10.5926C7.04756 10.5926 6.81857 10.4997 6.63378 10.3138C6.44898 10.1279 6.35659 9.89759 6.35659 9.62283C6.35659 9.34805 6.44898 9.1196 6.63378 8.93748C6.81857 8.75536 7.04756 8.6643 7.32073 8.6643H11.4987C11.7719 8.6643 12.0009 8.75724 12.1857 8.9431C12.3705 9.12899 12.4628 9.35932 12.4628 9.63408C12.4628 9.90886 12.3705 10.1373 12.1857 10.3194C12.0009 10.5015 11.7719 10.5926 11.4987 10.5926H7.32073ZM24.4901 25.1512C23.4566 25.1512 22.5757 24.7895 21.8472 24.0661C21.1187 23.3427 20.7545 22.4642 20.7545 21.4307C20.7545 20.3973 21.1162 19.5163 21.8397 18.7878C22.5631 18.0594 23.4415 17.6951 24.475 17.6951C25.5084 17.6951 26.3894 18.0569 27.1179 18.7803C27.8463 19.5037 28.2106 20.3821 28.2106 21.4156C28.2106 22.4491 27.8489 23.33 27.1254 24.0585C26.402 24.787 25.5236 25.1512 24.4901 25.1512ZM24.4825 23.2229C24.9753 23.2229 25.3985 23.0462 25.752 22.6926C26.1055 22.3391 26.2823 21.916 26.2823 21.4232C26.2823 20.9304 26.1055 20.5072 25.752 20.1537C25.3985 19.8002 24.9753 19.6234 24.4825 19.6234C23.9898 19.6234 23.5666 19.8002 23.2131 20.1537C22.8596 20.5072 22.6828 20.9304 22.6828 21.4232C22.6828 21.916 22.8596 22.3391 23.2131 22.6926C23.5666 23.0462 23.9898 23.2229 24.4825 23.2229ZM4.42829 19.4627H10.5346V14.4492H7.48142C6.6244 14.4492 5.9013 14.7513 5.31209 15.3555C4.72289 15.9597 4.42829 16.686 4.42829 17.5345V19.4627Z" fill="#FB651E"/>
</svg>
