<svg width="130" height="130" viewBox="0 0 130 130" fill="none" xmlns="http://www.w3.org/2000/svg">
<g clip-path="url(#clip0_6224_29612)">
<path d="M64.9999 0C29.1201 0 0 29.1201 0 64.9999C0 100.88 29.1201 130 64.9999 130C100.88 130 130 100.88 130 64.9999C130 29.1201 100.88 0 64.9999 0ZM18.3732 64.9999C18.3732 39.1733 39.3465 18.2 64.9999 18.2C74.7066 18.2 83.8933 21.1468 91.3464 26.3466L26.5201 91.3467C21.32 83.8933 18.3732 74.7066 18.3732 64.9999ZM64.9999 111.627C55.2932 111.627 46.1064 108.68 38.6533 103.48L103.48 38.6533C108.68 46.1067 111.627 55.2932 111.627 64.9999C111.627 90.8265 90.8265 111.627 64.9999 111.627Z" fill="#F53139"/>
</g>
<defs>
<clipPath id="clip0_6224_29612">
<rect width="130" height="130" fill="white"/>
</clipPath>
</defs>
</svg>
