<svg width="25" height="24" viewBox="0 0 25 24" fill="none" xmlns="http://www.w3.org/2000/svg">
<path d="M1.5 22H23.5" stroke="#F05B2A" stroke-width="1.5" stroke-miterlimit="10" stroke-linecap="round" stroke-linejoin="round"/>
<path d="M20.28 22.0101V17.55" stroke="#F05B2A" stroke-width="1.5" stroke-miterlimit="10" stroke-linecap="round" stroke-linejoin="round"/>
<path d="M20.3001 10.89C19.0801 10.89 18.1001 11.87 18.1001 13.09V15.36C18.1001 16.58 19.0801 17.56 20.3001 17.56C21.5201 17.56 22.5001 16.58 22.5001 15.36V13.09C22.5001 11.87 21.5201 10.89 20.3001 10.89Z" stroke="#F05B2A" stroke-width="1.5" stroke-miterlimit="10" stroke-linecap="round" stroke-linejoin="round"/>
<path d="M2.6001 22V6.03003C2.6001 4.02003 3.60015 3.01001 5.59015 3.01001H11.8201C13.8101 3.01001 14.8001 4.02003 14.8001 6.03003V22" stroke="#F05B2A" stroke-width="1.5" stroke-miterlimit="10" stroke-linecap="round" stroke-linejoin="round"/>
<path d="M6.30005 8.25H11.2501" stroke="#F05B2A" stroke-width="1.5" stroke-miterlimit="10" stroke-linecap="round" stroke-linejoin="round"/>
<path d="M6.30005 12H11.2501" stroke="#F05B2A" stroke-width="1.5" stroke-miterlimit="10" stroke-linecap="round" stroke-linejoin="round"/>
<path d="M8.75 22V18.25" stroke="#F05B2A" stroke-width="1.5" stroke-miterlimit="10" stroke-linecap="round" stroke-linejoin="round"/>
</svg>
