<svg width="24" height="24" viewBox="0 0 24 24" fill="none" xmlns="http://www.w3.org/2000/svg">
<path d="M18 6C18.5523 6 19 6.44772 19 7V9.20991C19 9.71946 18.6169 10.1475 18.1104 10.2038L12.6687 10.8084C11.1494 10.9772 10 12.2614 10 13.7901V15C10 15.5523 10.4477 16 11 16C11.5523 16 12 15.5523 12 15V13.7901C12 13.2805 12.3831 12.8525 12.8896 12.7962L18.3313 12.1916C19.8506 12.0228 21 10.7386 21 9.20991V7C21 5.34315 19.6569 4 18 4C17.4477 4 17 4.44772 17 5C17 5.55228 17.4477 6 18 6Z" fill="#FB651E"/>
<path fill-rule="evenodd" clip-rule="evenodd" d="M12 20V17C12 16.4477 11.5523 16 11 16C10.4477 16 10 16.4477 10 17V20C10 20.5523 10.4477 21 11 21C11.5523 21 12 20.5523 12 20ZM11 14C9.34315 14 8 15.3431 8 17V20C8 21.6569 9.34315 23 11 23C12.6569 23 14 21.6569 14 20V17C14 15.3431 12.6569 14 11 14Z" fill="#FB651E"/>
<path fill-rule="evenodd" clip-rule="evenodd" d="M16 3H6C5.44772 3 5 3.44772 5 4V6C5 6.55228 5.44772 7 6 7H16C16.5523 7 17 6.55228 17 6V4C17 3.44772 16.5523 3 16 3ZM6 1C4.34315 1 3 2.34315 3 4V6C3 7.65685 4.34315 9 6 9H16C17.6569 9 19 7.65685 19 6V4C19 2.34315 17.6569 1 16 1H6Z" fill="#FB651E"/>
</svg>
