<svg width="40" height="40" viewBox="0 0 40 40" fill="none" xmlns="http://www.w3.org/2000/svg">
<g clip-path="url(#clip0_1610_34733)">
<path d="M20 3.33325C10.7834 3.33325 3.33337 10.7833 3.33337 19.9999C3.33337 29.2166 10.7834 36.6666 20 36.6666C29.2167 36.6666 36.6667 29.2166 36.6667 19.9999C36.6667 10.7833 29.2167 3.33325 20 3.33325ZM27.1667 27.1666C26.5167 27.8166 25.4667 27.8166 24.8167 27.1666L20 22.3499L15.1834 27.1666C14.5334 27.8166 13.4834 27.8166 12.8334 27.1666C12.1834 26.5166 12.1834 25.4666 12.8334 24.8166L17.65 19.9999L12.8334 15.1833C12.1834 14.5333 12.1834 13.4833 12.8334 12.8333C13.4834 12.1833 14.5334 12.1833 15.1834 12.8333L20 17.6499L24.8167 12.8333C25.4667 12.1833 26.5167 12.1833 27.1667 12.8333C27.8167 13.4833 27.8167 14.5333 27.1667 15.1833L22.35 19.9999L27.1667 24.8166C27.8 25.4499 27.8 26.5166 27.1667 27.1666Z" fill="#64748B"/>
</g>
<defs>
<clipPath id="clip0_1610_34733">
<rect width="40" height="40" fill="white"/>
</clipPath>
</defs>
</svg>
