<svg width="24" height="24" viewBox="0 0 24 24" fill="none" xmlns="http://www.w3.org/2000/svg">
<g clip-path="url(#clip0_458_2933)">
<path d="M18 7.71429L13.7143 12L18 16.2857C18.4714 16.7571 18.4714 17.5286 18 18C17.5285 18.4714 16.7571 18.4714 16.2857 18L12 13.7143L7.71427 18C7.24285 18.4714 6.47142 18.4714 5.99999 18C5.52856 17.5286 5.52856 16.7571 5.99999 16.2857L10.2857 12L5.99999 7.71429C5.52856 7.24286 5.52856 6.47144 5.99999 6.00001C6.47142 5.52858 7.24285 5.52858 7.71427 6.00001L12 10.2857L16.2857 6.00001C16.7571 5.52858 17.5285 5.52858 18 6.00001C18.4714 6.47144 18.4714 7.24286 18 7.71429Z" fill="black"/>
</g>
<defs>
<clipPath id="clip0_458_2933">
<rect width="24" height="24" fill="white"/>
</clipPath>
</defs>
</svg>
