<svg width="25" height="24" viewBox="0 0 25 24" fill="none" xmlns="http://www.w3.org/2000/svg">
<path d="M7 22V15" stroke="#F05B2A" stroke-width="1.5" stroke-miterlimit="10" stroke-linecap="round" stroke-linejoin="round"/>
<path d="M7 5V2" stroke="#F05B2A" stroke-width="1.5" stroke-miterlimit="10" stroke-linecap="round" stroke-linejoin="round"/>
<path d="M18 22V19" stroke="#F05B2A" stroke-width="1.5" stroke-miterlimit="10" stroke-linecap="round" stroke-linejoin="round"/>
<path d="M18 9V2" stroke="#F05B2A" stroke-width="1.5" stroke-miterlimit="10" stroke-linecap="round" stroke-linejoin="round"/>
<path d="M10 7V13C10 14.1 9.5 15 8 15H6C4.5 15 4 14.1 4 13V7C4 5.9 4.5 5 6 5H8C9.5 5 10 5.9 10 7Z" stroke="#F05B2A" stroke-width="1.5" stroke-miterlimit="10" stroke-linecap="round" stroke-linejoin="round"/>
<path d="M21 11V17C21 18.1 20.5 19 19 19H17C15.5 19 15 18.1 15 17V11C15 9.9 15.5 9 17 9H19C20.5 9 21 9.9 21 11Z" stroke="#F05B2A" stroke-width="1.5" stroke-miterlimit="10" stroke-linecap="round" stroke-linejoin="round"/>
</svg>
