<svg width="20" height="20" viewBox="0 0 20 20" fill="none" xmlns="http://www.w3.org/2000/svg">
<path d="M15 12.5C16.3807 12.5 17.5 11.3807 17.5 10V5C17.5 3.61929 16.3807 2.5 15 2.5H11.6667C10.286 2.5 9.16667 3.61929 9.16667 5V6.41667H9.58333C10.964 6.41667 12.0833 7.53595 12.0833 8.91667V12.5H15Z" fill="#FB651E"/>
<path d="M5 7.5C3.61929 7.5 2.5 8.61929 2.5 10V15C2.5 16.3807 3.61929 17.5 5 17.5H8.33333C9.71404 17.5 10.8333 16.3807 10.8333 15V10C10.8333 8.61929 9.71404 7.5 8.33333 7.5H5Z" fill="#FB651E"/>
</svg>
