<svg width="143" height="142" viewBox="0 0 143 142" fill="none" xmlns="http://www.w3.org/2000/svg">
<g clip-path="url(#clip0_1539_17687)">
<path d="M71.5 142C110.712 142 142.5 110.212 142.5 71C142.5 31.7878 110.712 0 71.5 0C32.2878 0 0.5 31.7878 0.5 71C0.5 110.212 32.2878 142 71.5 142Z" fill="#EF5050"/>
<path fill-rule="evenodd" clip-rule="evenodd" d="M86.8238 101.264C86.8238 102.095 87.1537 102.891 87.7409 103.479C88.3281 104.066 89.1246 104.396 89.955 104.396C90.7855 104.396 91.5819 104.066 92.1691 103.479C92.7563 102.891 93.0862 102.095 93.0862 101.264V56.9474C93.0862 56.117 92.7563 55.3205 92.1691 54.7333C91.5819 54.1461 90.7855 53.8162 89.955 53.8162C89.1246 53.8162 88.3281 54.1461 87.7409 54.7333C87.1537 55.3205 86.8238 56.117 86.8238 56.9474V101.264ZM68.3688 101.264C68.3688 102.095 68.6987 102.891 69.2859 103.479C69.8731 104.066 70.6696 104.396 71.5 104.396C72.3305 104.396 73.1269 104.066 73.7141 103.479C74.3013 102.891 74.6312 102.095 74.6312 101.264V56.9474C74.6312 56.117 74.3013 55.3205 73.7141 54.7333C73.1269 54.1461 72.3305 53.8162 71.5 53.8162C70.6696 53.8162 69.8731 54.1461 69.2859 54.7333C68.6987 55.3205 68.3688 56.117 68.3688 56.9474V101.264ZM49.9138 101.264C49.9138 102.095 50.2437 102.891 50.8309 103.479C51.4181 104.066 52.2145 104.396 53.045 104.396C53.8754 104.396 54.6719 104.066 55.2591 103.479C55.8463 102.891 56.1762 102.095 56.1762 101.264V56.9474C56.1762 56.117 55.8463 55.3205 55.2591 54.7333C54.6719 54.1461 53.8754 53.8162 53.045 53.8162C52.2145 53.8162 51.4181 54.1461 50.8309 54.7333C50.2437 55.3205 49.9138 56.117 49.9138 56.9474V101.264ZM89.9051 25.9318C90.5247 25.927 91.139 26.0449 91.7128 26.2787C92.2866 26.5125 92.8084 26.8576 93.2482 27.294C93.688 27.7304 94.037 28.2496 94.2752 28.8215C94.5134 29.3935 94.6361 30.0069 94.6361 30.6265C94.6361 31.2461 94.5134 31.8595 94.2752 32.4315C94.037 33.0035 93.688 33.5226 93.2482 33.959C92.8084 34.3954 92.2866 34.7405 91.7128 34.9743C91.139 35.2081 90.5247 35.326 89.9051 35.3213H53.0949C52.4754 35.326 51.861 35.2081 51.2872 34.9743C50.7134 34.7405 50.1916 34.3954 49.7518 33.959C49.3121 33.5226 48.963 33.0035 48.7248 32.4315C48.4866 31.8595 48.364 31.2461 48.364 30.6265C48.364 30.0069 48.4866 29.3935 48.7248 28.8215C48.963 28.2496 49.3121 27.7304 49.7518 27.294C50.1916 26.8576 50.7134 26.5125 51.2872 26.2787C51.861 26.0449 52.4754 25.927 53.0949 25.9318H89.9051ZM102.272 113.509C102.227 114.202 101.919 114.853 101.412 115.328C100.904 115.804 100.235 116.068 99.5395 116.068H43.4606C42.7653 116.068 42.096 115.804 41.5886 115.329C41.0811 114.853 40.7734 114.203 40.7279 113.509L36.2926 45.0571C36.2698 44.6836 36.3234 44.3094 36.4503 43.9574C36.5771 43.6053 36.7745 43.2829 37.0304 43.0098C37.2862 42.7367 37.5951 42.5188 37.9381 42.3693C38.2811 42.2197 38.6511 42.1418 39.0253 42.1403H103.975C104.349 42.1418 104.719 42.2197 105.062 42.3693C105.405 42.5188 105.714 42.7367 105.97 43.0098C106.226 43.2829 106.423 43.6053 106.55 43.9574C106.677 44.3094 106.73 44.6836 106.707 45.0571C105.229 67.8751 103.751 90.6923 102.272 113.509Z" fill="white"/>
</g>
<defs>
<clipPath id="clip0_1539_17687">
<rect width="142" height="142" fill="white" transform="translate(0.5)"/>
</clipPath>
</defs>
</svg>
