<svg width="16" height="21" viewBox="0 0 16 21" fill="none" xmlns="http://www.w3.org/2000/svg">
<path d="M2.11108 7.04189V16.519L7.99526 17.4264L13.9926 16.519V7.04189L7.95837 6.28442L2.11108 7.04189Z" fill="#AF5A1C"/>
<path d="M8.06909 17.4013L13.9926 16.5051V7.02799L8.06909 6.28442V17.4013Z" fill="#AF5A1C"/>
<path d="M2.11108 16.5188H13.9926V20.0163H2.11108V16.5188Z" fill="#F39D56"/>
<path d="M2.11108 3.46838H13.9926V7.04181H2.11108V3.46838Z" fill="#F39D56"/>
<path d="M8.59902 9.60935C8.35413 9.18902 7.7473 9.18776 7.50064 9.60701L6.37875 11.5137C6.21442 11.8032 6.12805 12.0636 6.12805 12.3965C6.12805 13.459 6.98937 14.3203 8.05183 14.3203C9.11428 14.3203 9.97561 13.459 9.97561 12.3965C9.97561 12.0461 9.8799 11.7969 9.69882 11.4969L8.59902 9.60935Z" fill="#F8E6C0"/>
<path d="M8.06909 3.46838H13.9926V7.04181H8.06909V3.46838Z" fill="#F39D56"/>
<path d="M8.06909 16.5188H13.9926V20.0922H8.06909V16.5188Z" fill="#F39D56"/>
<path d="M8.59907 9.60873C8.48016 9.40468 8.27599 9.29967 8.06909 9.29333V14.3193C9.12359 14.31 9.97566 13.4526 9.97566 12.3959C9.97566 12.0455 9.87995 11.7963 9.69887 11.4963L8.59907 9.60873Z" fill="#F8E6C0"/>
<path d="M7.05573 3.624H2.41797V1.80834C2.41797 1.31774 2.81566 0.920044 3.30626 0.920044H6.1674C6.65799 0.920044 7.05569 1.31774 7.05569 1.80834V3.624H7.05573Z" fill="#AF5A1C"/>
<path d="M15.2 4.05206H0.903715C0.581324 4.05206 0.319946 3.79068 0.319946 3.46829C0.319946 3.1459 0.581324 2.88452 0.903715 2.88452H15.2C15.5224 2.88452 15.7838 3.1459 15.7838 3.46829C15.7838 3.79068 15.5224 4.05206 15.2 4.05206Z" fill="#F39D56"/>
<path d="M15.2 20.6002H0.903715C0.581324 20.6002 0.319946 20.3388 0.319946 20.0164C0.319946 19.694 0.581324 19.4326 0.903715 19.4326H15.2C15.5224 19.4326 15.7838 19.694 15.7838 20.0164C15.7838 20.3388 15.5224 20.6002 15.2 20.6002Z" fill="#F39D56"/>
<path d="M15.2 2.88452H8.06909V4.0521H15.2C15.5225 4.0521 15.7838 3.79072 15.7838 3.46833C15.7838 3.14594 15.5225 2.88452 15.2 2.88452Z" fill="#F39D56"/>
<path d="M15.2 19.4325H8.06909V20.6001H15.2C15.5225 20.6001 15.7838 20.3387 15.7838 20.0163C15.7838 19.6939 15.5225 19.4325 15.2 19.4325Z" fill="#F39D56"/>
</svg>
