<svg width="16" height="16" viewBox="0 0 16 16" fill="none" xmlns="http://www.w3.org/2000/svg">
<path d="M14.1381 2.98637C14.7156 3.56378 14.725 4.49698 14.1594 5.08597L8.74255 10.7271C8.46725 11.0137 8.08944 11.1795 7.69207 11.1878L5.41674 11.2355L5.4648 8.94497C5.47295 8.55664 5.63141 8.1866 5.90685 7.91274L11.4439 2.40735C12.0302 1.82442 12.9776 1.82578 13.5622 2.41038L14.1381 2.98637Z" fill="#FFC502"/>
<path opacity="0.3" d="M8.60004 1.33325C8.96823 1.33325 9.26671 1.63173 9.26671 1.99992C9.26671 2.36811 8.96823 2.66659 8.60004 2.66659H4.00004C3.26366 2.66659 2.66671 3.26354 2.66671 3.99992V11.9999C2.66671 12.7363 3.26366 13.3333 4.00004 13.3333H12C12.7364 13.3333 13.3334 12.7363 13.3334 11.9999V8.66659C13.3334 8.2984 13.6319 7.99992 14 7.99992C14.3682 7.99992 14.6667 8.2984 14.6667 8.66659V11.9999C14.6667 13.4727 13.4728 14.6666 12 14.6666H4.00004C2.52728 14.6666 1.33337 13.4727 1.33337 11.9999V3.99992C1.33337 2.52716 2.52728 1.33325 4.00004 1.33325H8.60004Z" fill="#FFC502"/>
</svg>
