<svg width="32" height="32" viewBox="0 0 32 32" fill="none" xmlns="http://www.w3.org/2000/svg">
<rect x="32" y="32" width="32" height="32" rx="6" transform="rotate(-180 32 32)" fill="#E8F1F8" fill-opacity="0.5"/>
<path d="M18.9833 15.9999C18.9833 17.6499 17.6499 18.9833 15.9999 18.9833C14.3499 18.9833 13.0166 17.6499 13.0166 15.9999C13.0166 14.3499 14.3499 13.0166 15.9999 13.0166C17.6499 13.0166 18.9833 14.3499 18.9833 15.9999Z" stroke="white" stroke-width="1.5" stroke-linecap="round" stroke-linejoin="round"/>
<path d="M15.9999 22.8923C18.9415 22.8923 21.6832 21.1589 23.5915 18.1589C24.3415 16.9839 24.3415 15.0089 23.5915 13.8339C21.6832 10.8339 18.9415 9.10059 15.9999 9.10059C13.0582 9.10059 10.3165 10.8339 8.4082 13.8339C7.6582 15.0089 7.6582 16.9839 8.4082 18.1589C10.3165 21.1589 13.0582 22.8923 15.9999 22.8923Z" stroke="white" stroke-width="1.5" stroke-linecap="round" stroke-linejoin="round"/>
</svg>
