<svg width="24" height="24" viewBox="0 0 24 24" fill="none" xmlns="http://www.w3.org/2000/svg">
<path d="M15 22.75H9C3.57 22.75 1.25 20.43 1.25 15V9C1.25 3.57 3.57 1.25 9 1.25H15C20.43 1.25 22.75 3.57 22.75 9V15C22.75 20.43 20.43 22.75 15 22.75ZM9 2.75C4.39 2.75 2.75 4.39 2.75 9V15C2.75 19.61 4.39 21.25 9 21.25H15C19.61 21.25 21.25 19.61 21.25 15V9C21.25 4.39 19.61 2.75 15 2.75H9Z" fill="#F05B2A"/>
<path d="M8.56976 16.0201C8.37976 16.0201 8.18977 15.9501 8.03977 15.8001C7.74977 15.5101 7.74977 15.0301 8.03977 14.7401L14.5898 8.19016C14.8798 7.90016 15.3598 7.90016 15.6498 8.19016C15.9398 8.48016 15.9398 8.96015 15.6498 9.25015L9.09976 15.8001C8.94976 15.9501 8.75976 16.0201 8.56976 16.0201Z" fill="#F05B2A"/>
<path d="M8.98001 11.1104C7.89001 11.1104 7 10.2204 7 9.1304C7 8.0404 7.89001 7.15039 8.98001 7.15039C10.07 7.15039 10.96 8.0404 10.96 9.1304C10.96 10.2204 10.07 11.1104 8.98001 11.1104ZM8.98001 8.6604C8.72001 8.6604 8.5 8.87041 8.5 9.14041C8.5 9.41041 8.71001 9.62039 8.98001 9.62039C9.25001 9.62039 9.45999 9.41041 9.45999 9.14041C9.45999 8.87041 9.24001 8.6604 8.98001 8.6604Z" fill="#F05B2A"/>
<path d="M15.52 16.8409C14.43 16.8409 13.54 15.9508 13.54 14.8608C13.54 13.7708 14.43 12.8809 15.52 12.8809C16.61 12.8809 17.5 13.7708 17.5 14.8608C17.5 15.9508 16.61 16.8409 15.52 16.8409ZM15.52 14.3909C15.26 14.3909 15.04 14.6008 15.04 14.8708C15.04 15.1408 15.25 15.3509 15.52 15.3509C15.79 15.3509 16 15.1408 16 14.8708C16 14.6008 15.79 14.3909 15.52 14.3909Z" fill="#F05B2A"/>
</svg>
