<svg width="486" height="427" viewBox="0 0 486 427" fill="none" xmlns="http://www.w3.org/2000/svg">
<g clip-path="url(#clip0_18_287)">
<path d="M199.467 316.832C198.184 320.879 191.172 342.507 189.889 352.378C190.581 352.97 191.172 353.466 191.37 353.862C191.468 353.957 191.468 354.155 191.468 354.258C191.27 354.557 190.678 354.755 189.691 354.755V354.85C189.593 361.265 190.779 365.614 191.468 367.586C191.468 366.994 191.468 366.305 191.37 365.614C190.383 356.136 194.332 364.431 194.332 364.431H194.43C194.43 364.526 197.59 378.254 197.094 383.384C196.7 386.642 196.405 388.229 196.304 389.018C196.502 393.264 196.402 396.719 195.613 397.406C194.43 398.493 183.37 406.1 171.72 412.911C165.104 416.66 158.289 420.219 152.761 422.191C149.208 423.477 145.554 424.464 141.9 425.156C137.359 426.04 132.915 426.634 129.262 426.933C123.633 427.421 119.683 425.251 119.683 425.251L119.485 425.156V424.961L119.881 419.722L120.375 419.826L120.473 419.722C120.473 419.826 120.866 420.021 121.46 420.116C122.152 420.314 123.237 420.414 124.325 420.512C127.78 420.81 132.617 420.71 136.073 420.021C142.787 418.735 151.774 415.578 158.585 413.204C159.771 412.811 160.858 412.415 161.45 412.217C170.534 409.059 194.232 390.299 195.613 389.216V388.522C195.219 381.515 194.034 372.623 193.54 370.651C193.244 369.664 192.653 369.373 191.861 369.373C191.169 373.421 188.109 373.225 187.911 373.225C187.616 373.225 183.666 373.32 181.493 372.927C180.308 372.629 178.037 371.94 175.371 370.757C173.296 369.867 170.928 368.682 168.755 367.396C164.211 364.531 158.189 363.056 157.4 362.858C157.004 363.056 155.327 363.742 152.067 365.619C150.189 366.707 148.906 368.185 147.821 369.968C146.834 371.839 145.944 373.914 145.155 376.185C143.969 379.54 140.315 382.703 137.847 384.779C136.859 385.663 136.07 386.357 135.674 386.751C134.787 387.738 131.923 390.405 129.058 392.773C126.787 394.745 124.615 396.427 123.728 396.82C122.838 397.118 120.863 398.697 118.69 400.474C116.024 402.649 113.162 405.31 111.483 406.992C108.42 409.957 109.112 414.495 109.112 414.495V420.517H0.115845V419.831H108.529V414.599C108.529 414.205 107.938 409.659 110.997 406.501C112.677 404.819 115.639 402.251 118.305 400.08C120.576 398.203 122.551 396.625 123.438 396.231C124.327 395.938 126.4 394.259 128.67 392.379C131.434 390.011 134.397 387.345 135.189 386.36C135.582 385.864 136.472 385.177 137.459 384.388C139.928 382.212 143.481 379.25 144.569 375.992C145.456 373.719 146.248 371.549 147.333 369.672C148.421 367.795 149.802 366.216 151.776 365.128C155.528 362.958 157.305 362.272 157.305 362.272H157.503C157.503 362.272 164.116 363.748 169.154 366.81C171.226 368.191 173.496 369.279 175.572 370.266C178.238 371.354 180.408 372.143 181.594 372.341C183.767 372.737 187.911 372.539 187.911 372.539C187.911 372.539 190.48 372.933 191.27 369.477C190.282 369.675 189.295 370.266 189.097 370.464C188.704 370.86 186.433 373.036 175.173 367.901C170.434 365.826 167.176 364.247 164.805 363.159C161.054 361.282 159.572 360.593 158.485 360.593C158.189 360.49 157.991 360.49 157.793 360.49V360.688L157.497 360.593C157.497 360.593 153.152 359.7 157.299 359.898L158.186 350.225V350.122C158.186 350.027 158.384 349.829 158.68 349.436C155.62 348.543 153.447 347.757 152.756 347.062C149.696 344.103 157.299 319.223 157.494 318.436L161.444 298.49L138.636 302.239L138.24 302.342V301.845L139.721 293.16L124.91 354.97L124.813 355.065L124.715 355.168C122.838 356.052 120.863 356.643 118.989 356.643C117.014 356.643 115.139 356.152 113.165 355.168L112.967 355.065V354.867L120.57 288.714V285.355L103.388 285.06H103.093V283.972H102.995L103.093 283.576V283.28L103.291 276.96L103.388 276.664H103.982L104.18 275.777V275.679L104.278 275.582L113.265 270.053C113.067 269.557 112.573 267.978 112.08 265.805C111.193 263.833 110.501 260.969 110.501 257.019V254.947C110.303 251.293 110.501 247.642 111.488 244.677C112.08 241.419 112.771 239.048 113.067 237.863L110.498 240.825L110.105 241.318L110.007 240.727C109.91 240.529 93.6175 168.452 93.6175 163.81C93.6175 161.144 93.8156 160.156 93.9132 159.861H93.7152L93.1238 159.961L93.4195 159.367C93.4195 159.367 93.5171 159.269 93.7152 159.367V159.269L104.775 158.58L104.677 158.382C99.1487 158.776 83.1522 157.889 83.1522 157.889H82.8538V157.691L82.5581 153.247H82.4605L82.5581 153.15V152.756H83.0518L83.2498 152.659C83.2498 152.659 83.9416 151.967 87.8884 150.288C89.6652 149.499 95.1963 148.115 100.822 146.832C107.24 145.354 113.954 144.068 115.533 143.97C116.423 143.873 120.372 143.574 125.306 143.178C136.07 142.191 151.966 140.81 154.334 141.005C156.111 141.103 158.381 141.103 160.454 141.005C162.529 140.908 164.504 140.908 165.982 141.005C168.451 141.203 169.536 143.574 169.831 144.364C170.029 143.97 170.227 143.772 170.328 143.672L159.268 103.188C159.268 102.99 158.479 100.62 161.341 100.129C163.809 99.7326 226.506 100.327 227.396 100.327C227.692 100.229 230.554 100.031 232.035 102.597C233.318 104.87 244.377 155.225 246.748 165.986C246.946 165.888 247.141 165.788 247.342 165.69C251.194 153.741 269.26 98.9432 275.678 91.2421C280.317 85.8114 282.59 83.9342 283.675 83.2452L283.477 82.8492C282.983 82.4559 282.194 81.8618 281.896 80.972C281.304 79.6889 275.282 83.6385 275.282 83.6385L275.182 83.7361L266.887 83.9342C265.701 87.2925 248.126 134.981 247.635 144.263C246.943 156.112 236.082 108.72 235.982 108.619V108.421C235.982 108.421 236.079 108.123 236.28 107.531C235.192 104.767 233.318 100.62 231.736 100.028C229.466 99.1385 227.689 99.6349 227.689 99.6349L226.504 100.028L227.393 99.1385L239.142 87.9814C239.535 87.5853 249.509 76.922 252.965 76.233C254.642 75.9374 256.223 75.6417 257.704 75.5413C259.283 75.4437 260.767 75.6389 261.95 76.233C264.32 77.4185 266.689 77.4185 266.689 77.4185V78.0098H266.491C265.698 78.0098 261.554 78.0098 259.481 79.1952L257.802 80.0822C259.874 79.3905 262.346 78.6987 264.022 78.6011C265.698 78.5035 266.786 78.2078 267.774 78.0098C268.761 77.8117 269.651 77.6137 270.931 77.6137C273.4 77.6137 278.635 77.5161 280.409 77.5161L279.422 75.9374C279.422 75.9374 277.053 70.6043 274.881 67.5445C272.906 64.5823 272.708 60.8307 272.607 58.2646C272.607 57.9689 272.607 57.7709 272.51 57.5729C272.51 56.0918 271.818 55.7961 271.029 55.5981C270.635 55.4 270.142 55.2048 269.746 54.9063C268.362 53.8213 268.264 52.9315 268.264 52.9315C268.264 52.9315 268.066 49.576 268.953 47.6989C269.249 46.9095 269.051 45.7241 268.658 44.243C267.868 42.3658 265.202 35.454 265.4 34.0733C265.598 33.3816 265.202 30.6174 264.906 27.9509C264.708 25.6804 264.413 23.5076 264.51 22.7182C264.51 21.8312 264.806 20.5454 265.199 19.2623C265.595 17.9793 266.089 16.5958 266.482 15.6084C267.174 14.1273 270.925 10.9698 273.79 8.59617C275.073 7.41352 276.158 6.52375 276.652 5.93242C278.429 4.25329 284.057 2.18086 287.711 0.797388L288.107 0.699764C291.463 -0.583297 293.931 0.306478 294.425 0.501726C295.117 0.501726 301.041 0.10844 304.399 1.58954C306.374 2.57694 310.915 5.14306 314.962 7.90722C317.925 9.88202 320.786 11.9544 321.972 13.3379C323.157 14.7214 324.44 17.3851 325.33 20.0517C326.714 23.8032 327.698 27.7528 327.698 29.0359C327.698 30.319 327.5 34.4666 327.204 38.5166C327.104 40.1929 326.909 41.8749 326.811 43.2556C327.009 44.8343 327.107 46.5134 327.009 47.9945C326.811 51.0543 325.33 53.2272 324.145 54.9035C323.749 55.5953 323.355 56.089 323.06 56.5827C322.563 57.8657 323.258 60.1362 324.44 64.0886C324.736 65.1736 325.132 66.4567 325.528 67.7425C326.415 70.7047 327.009 71.296 327.405 71.6921C327.899 72.1858 328.195 72.4815 328.393 76.035C328.493 78.0098 327.899 79.8842 327.012 81.6637C327.899 80.1826 328.691 78.7015 329.38 77.3208C330.565 74.5567 330.764 73.1732 330.666 72.4815L329.776 71.6921L329.282 71.1984H329.974C330.072 71.1984 330.864 71.1984 331.16 72.0882L331.949 72.9752L332.147 72.4815L332.345 71.9878L332.641 72.3811C332.738 72.3811 345.575 85.8086 350.807 88.1794C354.363 89.7582 362.458 94.1038 366.606 96.9656C367.2 97.3617 367.791 97.6574 368.184 98.0534V97.9558C368.282 98.0534 372.232 101.214 374.602 102.399C375.983 103.091 376.577 104.176 376.775 106.053C376.973 107.93 376.775 110.496 376.379 114.15C375.885 119.483 376.675 124.024 377.169 127.282C377.367 128.465 377.562 129.553 377.662 130.342C377.662 131.329 377.76 132.417 377.76 133.6C377.76 136.169 377.857 138.933 378.552 140.609C378.945 141.399 379.539 141.795 380.131 142.09C381.316 142.782 382.105 143.175 380.426 145.94C379.637 147.223 378.747 148.408 377.958 149.395C377.071 150.578 376.181 151.568 375.785 152.653C375.587 153.147 375.389 153.54 375.291 154.034V155.417C375.489 156.603 375.785 157.786 376.081 158.776C376.574 160.848 377.068 162.725 376.772 164.895C376.574 166.574 376.477 168.452 376.477 170.128C376.376 171.609 376.477 172.993 376.672 174.078C376.772 174.87 377.068 175.461 377.461 175.955L379.141 169.241L380.524 158.182L375.785 155.518L375.587 155.32L375.687 155.024L378.354 149.691H378.452V149.593L381.511 146.829L381.609 146.732H381.707C381.807 146.732 391.385 147.125 396.813 150.285C399.974 152.062 401.946 153.741 403.033 154.829L403.131 154.731H403.625L403.527 155.125L403.427 155.323C403.823 155.716 404.021 156.014 404.021 156.014L404.118 156.112L404.021 156.31L402.342 159.665L376.374 267.881L383.679 282.692V282.789L383.779 293.651V293.946H382.691L382.594 295.927V296.219H382.298L369.858 295.628L286.032 294.342L350.012 307.873L349.717 298.588L349.616 295.533L350.308 298.493L365.317 364.149C366.006 364.448 369.166 365.733 371.537 365.733H374.402L376.574 363.46L369.861 301.056V300.66H370.156L485.975 301.449V302.144L370.552 301.251L377.169 363.555L377.266 363.753L377.169 363.856L374.7 366.224L374.602 366.328H371.54C368.773 366.328 365.021 364.743 364.924 364.648H364.826V364.45L350.411 301.65L350.609 308.269V308.662L350.213 308.559L282.777 294.34L279.717 293.651H282.877L369.961 295.034L382.008 295.531L382.105 293.946L252.661 291.877H252.366V286.345H252.661L356.829 284.767C356.927 284.669 357.421 284.27 358.015 283.579L250.391 285.358L251.183 290.688L251.381 291.877L250.689 290.886C250.689 290.886 249.702 289.506 248.318 287.43C248.318 289.308 248.12 291.084 247.529 292.37C247.432 292.468 247.431 292.666 247.331 292.764L250.293 292.27H250.589L250.687 292.566L251.476 302.836V303.034L251.278 303.128L239.133 307.374L238.542 307.572L238.74 306.98L239.728 304.314L232.322 310.54L232.224 310.634H232.127L200.432 318.137L200.234 318.241L200.137 318.043C200.137 318.043 199.841 317.546 199.445 316.852L199.467 316.832ZM284.677 84.7068C286.06 87.471 290.107 94.5808 292.378 98.7256L293.365 100.405L293.758 101.197C294.35 100.21 295.438 98.4328 295.535 97.2473C295.633 96.4552 294.746 95.7662 293.56 94.8765C292.573 94.0871 291.29 93.0997 290.104 91.7162C287.438 88.4584 284.771 85.0025 284.771 85.0025L284.674 84.7068H284.677ZM293.761 102.182L293.563 101.984L293.365 101.785L293.265 101.688L292.771 100.7L291.784 99.0213C289.215 94.3828 284.576 85.9871 283.589 83.817C282.601 84.6092 280.428 86.5812 276.183 91.6158C269.866 99.1189 252.29 152.338 248.143 165.275C250.215 164.287 253.671 162.907 255.055 163.398C256.14 163.794 257.718 163.696 259.693 163.596C260.976 163.495 262.457 163.398 264.136 163.495C266.111 163.596 267.69 163.794 268.973 164.187C270.158 164.58 271.146 165.174 272.133 165.964C272.133 165.668 272.231 165.272 272.231 164.976C272.725 157.671 274.897 122.618 281.511 104.946L282.102 105.144C276.08 121.238 273.709 151.945 273.017 162.608C274.499 158.659 277.461 152.338 281.115 145.231C289.904 128.445 302.146 107.612 305.108 102.873C305.01 102.773 304.812 102.675 304.614 102.477C303.822 101.688 303.231 100.996 302.539 99.9111C302.045 99.3198 301.454 98.5276 300.762 97.6406C299.083 95.6658 298.687 96.6532 298.687 96.6532H298.589L293.753 102.182H293.761ZM306.003 102.675C304.129 105.637 290.897 127.854 281.714 145.527C276.975 154.611 273.321 162.511 272.828 165.668C272.828 165.866 272.828 166.061 272.73 166.162V166.36C275.793 168.335 290.208 173.863 290.601 173.963L296.032 175.74C295.343 174.555 294.45 173.963 294.45 173.963L294.252 173.866V173.668L295.733 169.62L322.588 94.8765L316.072 102.974L315.481 102.675C315.481 102.675 316.862 98.43 316.566 95.2697C316.469 93.493 314.692 94.0871 313.604 94.6784C313.013 94.9741 312.617 95.2697 312.617 95.2697C310.937 96.5528 309.359 97.7383 308.569 98.7256C307.384 100.009 306.89 101.097 306.497 101.788C306.299 102.182 306.198 102.48 306 102.675H306.003ZM305.51 102.279C305.607 102.081 305.708 101.984 305.805 101.886C305.805 101.788 305.903 101.688 306.003 101.493C306.299 100.801 306.893 99.6154 308.078 98.2347C310.745 95.3702 320.321 89.0525 320.619 88.8544C321.113 88.4612 328.024 82.1407 327.826 76.0182C327.628 72.7604 327.433 72.4647 326.939 72.0686C326.543 71.6754 325.852 70.9808 324.965 67.921C324.569 66.5375 324.175 65.3521 323.88 64.2671C322.594 60.1194 321.905 57.7486 322.594 56.2675C322.792 55.7738 323.188 55.1825 323.682 54.5883C324.767 53.0096 326.248 50.8368 326.446 47.975C326.546 47.2833 326.546 46.4939 326.446 45.7045C325.952 48.173 324.767 50.9344 323.779 53.11C323.188 54.3931 322.691 55.5785 322.496 56.3679C322.201 57.3553 321.804 58.047 321.314 58.4403C321.015 58.6384 320.817 58.7388 320.521 58.8364H319.732C319.336 58.6384 318.94 58.4403 318.547 57.9466C317.757 56.9592 317.955 55.6762 318.053 54.4907C318.15 53.8018 318.251 53.2077 318.15 52.714C317.952 51.827 317.261 50.0474 316.572 48.3711C316.078 47.1856 315.584 46.1006 315.289 45.2108C314.597 43.038 317.264 40.7675 318.449 39.7801V39.6825C319.141 39.0912 320.226 38.3018 321.411 37.8053C322.298 37.4121 323.188 37.3116 323.977 37.4121C325.065 37.7077 325.854 39.0912 326.345 41.066L326.443 41.264C326.443 40.377 326.543 39.3869 326.641 38.4022C326.937 34.4526 327.135 30.305 327.135 29.0192C327.135 27.8365 326.147 23.8869 324.864 20.233C323.877 17.5664 322.691 15.0979 321.506 13.8149C320.321 12.4342 317.654 10.359 314.594 8.38418C310.645 5.72044 306.201 3.05111 304.227 2.16413C300.771 0.585404 294.45 1.07631 294.352 1.07631H294.255C294.255 1.07631 291.786 -0.106333 288.33 1.17394L287.937 1.37198C284.283 2.65504 278.755 4.72746 277.076 6.4066C276.582 6.9003 275.497 7.8877 274.211 8.97551C271.349 11.3436 267.695 14.5038 267.101 15.8845C266.608 16.7743 266.214 18.1578 265.818 19.3404C265.422 20.6235 265.224 21.9093 265.127 22.6987C265.029 23.4908 265.325 25.5633 265.52 27.8337C265.916 30.5003 266.212 33.362 266.016 34.1514C265.919 34.8431 266.705 37.214 267.497 39.5821C267.397 38.9908 267.397 38.3995 267.299 37.8053C267.202 35.8305 267.202 34.1514 267.497 33.4625C267.891 32.3746 268.582 32.4751 269.768 34.1542C270.655 35.4373 272.136 35.931 273.617 36.0314C275.098 36.2294 276.579 36.0314 277.567 35.9337C278.06 35.8361 278.256 35.5405 278.752 35.1444C279.74 34.0566 281.318 32.3774 287.736 31.5909C294.648 30.8015 299.981 36.8235 303.931 41.3644C305.412 42.9432 306.597 44.4271 307.682 45.2136C310.447 47.3865 312.324 50.3487 313.211 52.2258C313.113 51.3388 313.013 50.1534 312.717 48.8676C312.223 46.0058 307.975 41.5625 307.975 41.5625L306.793 40.2794L308.374 41.0688C308.374 41.0688 313.013 43.2416 314.89 46.4995C315.682 47.7825 316.371 50.1534 316.962 52.7195C317.852 56.5687 318.443 60.7191 318.443 61.7038C318.443 62.4959 317.95 64.7664 317.258 67.4301C316.469 70.5903 315.384 74.1439 314.692 76.3167C313.409 80.2663 305.903 85.4013 301.462 88.4612L300.871 88.8544C298.997 90.1375 296.821 90.3355 294.749 89.9423C291.689 89.3481 288.824 87.669 287.047 86.3859C286.456 85.8922 285.862 85.2981 285.271 84.6092V84.7068C285.469 84.8044 287.937 88.1627 290.604 91.3201C291.789 92.7036 292.975 93.691 293.962 94.3828C295.345 95.4678 296.232 96.1595 296.135 97.345C296.135 97.8387 295.839 98.628 295.544 99.3198L298.11 96.2571C298.308 96.0591 299.197 94.7761 301.169 97.2446C301.959 98.1315 302.55 98.9209 303.044 99.6126C303.736 100.6 304.327 101.292 305.019 101.981C305.314 102.276 305.415 102.276 305.512 102.276L305.51 102.279ZM189.789 353.073C189.789 353.466 189.691 353.759 189.691 354.155C190.285 354.155 190.678 354.155 190.779 354.06C190.581 353.762 190.285 353.469 189.791 353.073H189.789ZM191.27 368.768C190.876 367.884 188.902 363.047 189.097 354.85V354.755H188.801C187.418 354.652 185.543 354.456 183.273 354.155C176.263 353.271 165.993 351.299 159.28 349.517C159.082 349.913 158.886 350.211 158.786 350.306L157.896 359.884C158.094 359.884 158.289 359.884 158.487 359.988C159.673 359.988 161.154 360.777 165.104 362.551C167.472 363.639 170.732 365.217 175.374 367.388C187.32 372.721 188.603 370.054 188.603 370.054V369.959H188.701C188.701 369.959 189.984 369.067 191.267 368.768H191.27ZM189.097 354.155C189.097 353.667 189.194 353.168 189.194 352.68C187.713 351.692 185.443 350.406 182.974 349.026C178.726 346.847 173.792 344.677 170.434 343.693C165.793 342.209 161.547 346.755 159.673 349.026C166.289 350.803 176.459 352.68 183.37 353.564C185.641 353.862 187.518 354.06 188.801 354.06L189.097 354.155ZM189.295 352.086C190.776 341.221 198.575 317.825 199.068 316.146C197.785 313.677 195.515 309.234 195.021 306.668C194.625 304.791 194.625 302.219 195.021 299.851C195.415 297.383 196.109 295.014 196.896 293.729C197.587 292.741 198.474 291.26 199.264 289.779L197.883 290.273L199.462 289.483C199.757 288.892 199.955 288.398 200.251 287.804C200.943 286.226 201.437 284.747 201.437 283.757C201.437 280.996 202.522 271.317 202.522 271.317V271.219L206.965 264.899C206.666 264.405 205.779 263.024 204.594 261.147C203.707 260.754 203.015 260.456 202.817 260.358C201.83 260.654 195.214 262.034 188.6 255.421C185.144 251.965 182.378 246.928 180.305 241.497C178.233 236.066 176.752 230.34 175.667 225.205C174.777 221.057 174.283 216.516 173.789 212.567C173.692 211.381 173.491 210.199 173.393 209.111C173.296 208.224 173.195 207.432 173.098 206.743V209.013L173.296 214.541L172.506 209.111L171.619 202.595C170.73 202.793 169.645 204.174 168.557 206.048C167.469 208.026 166.384 210.592 165.494 212.862C164.802 214.444 165.101 221.155 165.79 229.255C166.975 244.264 169.444 264.207 169.837 266.478C170.333 269.933 166.481 276.644 166.186 277.239L158.089 318.612C158.089 318.707 150.387 343.79 153.152 346.647C153.843 347.246 156.016 348.036 159.079 348.92C160.856 346.552 165.497 341.517 170.629 343.096C173.987 344.083 178.922 346.354 183.17 348.524C185.638 349.706 187.808 350.992 189.289 352.083L189.295 352.086ZM369.49 99.713C369.392 99.713 369.392 99.8107 369.292 99.9111C369.194 100.009 368.996 100.009 368.798 100.009C367.021 100.009 357.738 125.876 350.138 147.898L345.399 166.954L350.138 179.296C351.421 179.098 357.345 178.209 358.729 177.718C359.42 177.52 360.505 177.52 361.59 177.62C363.169 177.818 364.848 178.211 365.64 178.412C366.329 178.708 367.518 179.201 368.7 179.991C369.59 180.585 370.477 181.274 371.269 182.164C372.059 182.953 372.65 184.337 373.244 185.717C374.033 187.689 374.527 189.865 374.725 190.95C375.021 192.925 374.429 196.183 374.429 196.183L374.131 197.959L373.835 196.183C373.835 196.183 373.342 193.321 372.452 190.258C372.059 188.777 371.565 187.592 370.873 186.507C370.081 185.419 369.194 184.334 368.106 183.051C366.921 181.865 364.65 181.176 362.971 180.78C363.069 180.878 363.267 181.076 363.465 181.176C364.452 182.066 365.833 183.447 368.006 186.016C371.562 190.359 370.572 198.258 370.078 201.022C369.981 201.516 369.88 201.909 369.88 201.909L369.289 201.714C369.386 201.714 369.386 201.318 369.487 200.827C369.783 199.346 370.078 196.185 369.289 192.729C368.301 188.387 365.735 186.214 362.871 183.843L362.179 183.251C360.6 181.968 358.723 181.475 356.55 181.374C354.28 181.277 351.811 181.572 348.947 181.966C345.887 182.459 342.133 182.657 337.887 182.362C334.233 182.066 330.287 181.472 326.039 180.387C319.818 178.708 313.303 176.535 310.243 175.45L309.944 175.352C310.143 175.846 310.341 176.538 310.539 177.425C310.932 178.906 311.426 180.978 312.611 183.447C315.177 188.286 310.539 203.49 309.847 205.663C310.935 206.157 315.476 207.936 322.881 209.317C324.46 209.613 326.237 210.009 328.114 210.503C330.78 207.342 333.941 203.789 338.777 203.789C341.444 203.789 343.22 203.295 344.305 202.999C344.997 202.801 345.491 202.704 345.887 202.801C346.774 202.899 346.774 203.886 346.381 207.144C345.987 210.009 344.308 212.477 342.727 214.55C346.774 215.735 350.132 216.723 351.909 217.116C355.365 217.905 360.893 217.018 364.154 216.424C365.537 216.226 366.424 216.031 366.918 216.031C367.905 216.031 370.77 210.402 373.04 206.157C374.125 204.182 375.015 202.403 375.509 201.613C376.795 199.739 377.386 193.22 377.88 188.088C377.98 186.903 378.078 185.818 378.178 184.83C378.672 179.893 377.191 177.522 377.191 177.522L377.09 177.425V177.327L377.288 176.736C376.795 176.142 376.301 175.352 376.103 174.167C375.905 173.082 375.807 171.698 375.807 170.12C375.905 168.343 376.005 166.566 376.201 164.787C376.499 162.812 376.003 160.937 375.509 158.963C375.213 157.875 374.918 156.79 374.72 155.507C374.622 154.915 374.622 154.419 374.72 153.925C374.817 153.334 375.015 152.84 375.213 152.444C375.707 151.261 376.597 150.174 377.484 148.991C378.273 148.004 379.163 146.916 379.852 145.633C381.235 143.359 380.641 143.064 379.852 142.671C379.16 142.277 378.471 141.881 377.977 140.793C377.188 139.017 377.188 136.252 377.188 133.586C377.088 132.501 377.088 131.315 376.99 130.328C376.99 129.539 376.792 128.551 376.594 127.366C376.1 124.108 375.311 119.467 375.805 114.036C376.198 110.482 376.399 107.913 376.198 106.137C376 104.458 375.506 103.473 374.421 102.879C372.94 102.187 370.868 100.706 369.484 99.7186L369.49 99.713ZM380.351 164.781L382.326 157.08L382.524 155.401C382.228 155.007 380.845 153.426 378.968 153.328C375.908 153.13 380.744 148.885 380.744 148.885H380.842C380.842 148.885 383.21 147.995 387.556 149.772C389.729 150.759 391.009 150.957 392.194 151.155C393.282 151.253 394.367 151.451 395.946 152.042C398.018 152.832 399.6 154.017 400.49 154.907L402.166 154.809C401.081 153.822 399.304 152.341 396.54 150.759C391.603 147.898 383.012 147.404 381.829 147.306L378.965 149.97L376.399 155.105L380.94 157.769L381.138 157.869V158.067L380.348 164.781H380.351ZM383.015 156.092L399.7 155.007C398.713 154.218 397.43 153.328 395.751 152.639C394.172 152.045 393.184 151.847 392.097 151.75C390.814 151.552 389.531 151.356 387.257 150.366C383.603 148.787 381.531 149.281 381.135 149.379C380.641 149.772 377.481 152.637 378.962 152.737C381.431 152.835 383.11 155.105 383.11 155.105V155.401L383.012 156.092H383.015ZM403.354 155.995L403.058 156.885L403.452 156.196C403.452 156.095 403.354 156.095 403.354 155.998V155.995ZM191.959 365.614C192.059 366.799 192.059 367.887 191.959 368.771C192.946 368.676 193.735 369.167 194.131 370.553C194.528 372.33 195.613 379.833 196.106 386.447C196.204 385.657 196.304 384.575 196.5 383.289C196.993 378.453 193.933 365.315 193.833 364.629C193.635 364.236 191.365 359.792 191.956 365.616L191.959 365.614ZM195.713 389.9C192.751 392.173 170.534 409.745 161.648 412.805C160.462 413.198 159.673 413.5 158.786 413.798C151.972 416.166 142.887 419.324 136.173 420.609C132.617 421.304 127.78 421.399 124.325 421.106C123.139 421.003 122.054 420.908 121.362 420.704C120.969 420.609 120.671 420.506 120.475 420.411L120.082 424.855C120.969 425.251 124.425 426.732 129.262 426.339C132.915 426.04 137.261 425.446 141.802 424.562C145.356 423.867 149.11 422.883 152.566 421.597C157.997 419.72 164.811 416.169 171.424 412.317C183.075 405.603 194.037 397.997 195.219 396.915C195.813 396.521 195.911 393.554 195.713 389.9ZM120.475 419.82V419.717L120.378 419.82H120.475ZM165.399 277.738L165.597 277.049V276.946C165.597 276.946 169.745 269.939 169.154 266.581C168.858 264.307 166.389 244.364 165.204 229.358C164.512 221.063 164.217 214.349 164.908 212.67C165.896 210.399 166.981 207.833 168.069 205.758C169.154 203.686 170.339 202.205 171.522 202.007L171.226 199.343C168.956 199.343 164.71 199.44 163.132 200.23C162.638 200.428 161.849 200.824 160.959 201.12C158.094 202.305 153.849 204.082 151.679 206.453C150.1 208.229 148.321 210.698 147.431 212.968C146.839 214.55 146.641 216.129 147.333 217.412C147.927 218.402 148.025 219.389 148.223 220.276C148.519 222.056 148.717 223.634 152.864 224.619C159.185 226.103 163.625 227.581 163.625 227.581L163.823 227.679V227.877L165.996 244.958L166.094 245.352L165.7 245.254L115.346 237.455C114.654 239.132 113.865 241.009 112.78 243.179C112.582 243.673 112.286 244.267 112.088 244.76C111.594 247.625 111.201 251.078 111.101 255.03C111.299 258.98 112.088 262.829 112.682 265.593C114.459 269.345 117.125 270.137 117.321 270.137L163.43 277.738H165.405H165.399ZM172.213 202.202L172.311 202.299V199.337H171.817L172.211 202.199L172.213 202.202ZM173.003 203.585C173.396 204.868 173.695 206.745 173.99 209.016C174.088 210.003 174.286 211.286 174.383 212.472C174.877 216.421 175.371 220.962 176.261 225.107C177.348 230.145 178.827 235.969 180.899 241.302C182.974 246.632 185.638 251.572 189.094 255.028C195.908 261.836 202.72 259.767 202.72 259.767H202.918C202.918 259.767 203.411 259.965 204.103 260.26C201.735 256.113 198.672 250.091 198.474 245.845C198.179 238.538 206.273 238.047 206.273 238.047C206.273 238.047 209.531 237.751 216.543 239.034C220.197 239.726 222.468 241.798 223.851 243.974C225.332 246.144 225.923 248.417 226.219 249.502C226.515 250.587 226.908 251.577 227.502 252.464C228.194 253.452 229.081 254.141 230.364 254.732C233.229 255.82 234.807 265.889 234.807 265.889L234.905 266.779L234.314 266.187C234.314 266.187 232.735 264.902 229.77 263.027C228.584 262.238 226.216 261.939 223.748 261.939C220.49 261.939 216.934 262.436 214.959 263.027C212.688 263.716 208.343 262.534 205.481 261.446C206.764 263.421 207.654 264.704 207.654 264.704L207.751 264.902L207.654 265.1L203.113 271.518C203.012 272.405 202.025 281.197 202.025 283.76C202.025 284.848 201.531 286.426 200.84 288.005C200.642 288.404 200.544 288.7 200.346 288.995L203.11 287.612L223.449 277.052L208.836 274.976L207.553 274.879L208.739 274.385L224.537 269.052L208.343 268.854H206.466L208.242 268.263C208.242 268.263 219.795 264.511 224.041 264.511C227.497 264.511 232.236 266.882 236.085 268.756C237.072 269.25 237.962 269.643 238.654 270.042C241.714 271.423 243.292 274.287 244.676 276.656C245.169 277.548 245.663 278.435 246.157 279.124C247.144 280.505 247.934 282.973 248.229 285.643V286.136C249.119 287.615 249.908 288.705 250.402 289.495L249.811 285.152L249.713 284.756H250.106L358.617 282.976C360.69 280.508 364.145 275.275 366.614 265.599C370.07 251.778 363.95 249.505 363.356 249.407L241.119 254.442L233.616 255.234L233.519 255.332L233.421 255.234L228.286 251.976L227.893 251.681L228.286 251.482C228.384 251.482 231.84 249.605 240.235 248.225C245.666 247.332 249.615 246.347 252.873 245.558C254.55 245.162 256.031 244.769 257.414 244.473C258.301 244.275 260.181 244.08 262.747 243.779C272.225 242.596 291.184 240.426 304.712 235.386C319.127 229.958 332.853 231.14 340.749 231.829C342.23 231.927 343.513 232.027 344.598 232.125C350.029 232.323 357.139 237.558 361.384 240.816C362.274 241.408 362.966 241.999 363.557 242.395C367.01 244.766 368.393 255.825 368.494 256.712L374.814 268.363L400.091 160.544L382.32 159.752H382.223L379.751 169.33L378.864 177.425L378.767 177.821L378.373 177.623C378.373 177.623 378.175 177.525 377.779 177.229V177.327C378.075 177.918 379.26 180.39 378.767 184.931C378.669 185.918 378.569 187.003 378.471 188.188C377.977 193.324 377.386 199.937 376.1 202.009C375.607 202.701 374.622 204.481 373.632 206.453C371.264 210.896 368.201 216.622 366.918 216.622C366.522 216.622 365.537 216.82 364.352 217.016C360.896 217.607 355.368 218.499 351.811 217.707C349.934 217.311 346.579 216.327 342.629 215.141L342.333 215.044C340.459 217.412 339.076 219.289 340.654 220.868C343.616 223.83 358.034 219.782 358.525 219.685C358.821 219.587 361.883 218.402 364.449 222.056C364.943 222.747 365.437 223.436 365.833 224.031C367.905 226.599 369.585 228.669 369.289 233.709C369.091 239.731 368.893 247.234 368.893 247.234V248.027L368.399 247.432C368.301 247.432 355.267 231.933 350.528 231.143C347.566 230.649 341.84 230.649 336.607 230.649C333.447 230.747 330.485 230.747 328.312 230.649C325.35 230.451 318.931 231.341 312.614 232.621C306.293 233.81 300.073 235.486 297.013 236.772C294.545 237.857 289.014 239.04 283.089 240.13C273.612 241.807 263.046 243.288 261.367 243.288C259.983 243.288 252.084 244.573 244.678 246.055C238.556 247.237 232.732 248.523 231.449 249.114C228.386 250.495 227.402 250.595 227.402 250.595L227.106 250.693V250.297C227.106 250.297 227.502 231.043 227.008 229.068C226.612 227.885 223.455 223.146 219.996 219.099C217.528 216.137 214.962 213.47 213.283 212.681C209.235 210.804 205.779 209.125 205.779 209.125L204.496 208.436L205.88 208.533C205.977 208.533 212.594 208.927 217.829 213.668C221.681 217.222 224.147 220.184 225.134 221.467C225.332 218.212 226.024 205.769 225.332 202.411C224.838 200.043 222.074 191.254 219.109 183.848C217.135 179.109 215.16 174.965 213.581 173.383L205.289 165.088L203.807 163.707L205.682 164.594C205.682 164.594 211.311 167.556 213.776 169.729C215.059 170.915 216.147 173.481 217.33 176.342C218.515 179.009 219.798 181.971 221.279 184.046C223.848 187.402 224.242 189.675 224.342 190.562C226.119 190.267 233.82 188.785 240.93 188.983C244.779 189.181 250.703 188.688 256.134 188.292H256.232C240.534 188.392 224.339 188.392 224.339 188.392H224.044V188.194C223.946 188.096 210.616 154.229 206.072 150.771C204.987 149.884 203.802 148.698 202.616 147.513C199.06 143.959 195.013 139.711 188.003 140.305C183.463 140.698 179.415 141.588 176.255 142.774C172.997 143.862 170.824 145.242 170.331 146.626C169.737 147.909 169.243 155.61 168.947 163.61C168.85 165.188 168.85 166.767 168.749 168.348C169.045 174.273 169.441 180.593 169.737 185.924C170.529 191.156 171.614 198.263 171.614 198.263L171.711 198.657H172.894V198.955L172.992 203.594L173.003 203.585ZM375.216 269.245L383.015 283.562L383.112 283.76V282.873L375.805 268.062L375.707 267.964L375.805 267.867L401.575 160.639L400.688 160.541L375.213 269.247L375.216 269.245ZM401.873 159.451L402.86 155.404H402.763L401.084 155.501C401.477 155.894 401.577 156.092 401.577 156.092L401.678 156.193V156.29L400.791 159.944H401.58L401.876 159.451H401.873ZM400.294 155.599L383.015 156.687L382.917 157.18L382.622 159.155L400.194 159.944L401.084 156.29C400.886 156.193 400.69 155.894 400.294 155.599ZM378.672 173.765L377.98 176.529C378.078 176.627 378.178 176.727 378.279 176.828L378.672 173.765ZM204.996 260.654C207.76 261.641 212.499 263.222 214.87 262.433C216.844 261.836 220.498 261.345 223.756 261.345C226.322 261.345 228.791 261.641 230.074 262.534C232.049 263.716 233.332 264.704 234.121 265.295C233.627 262.927 232.244 256.115 230.074 255.226C228.69 254.729 227.706 253.842 227.014 252.855C226.322 251.867 225.926 250.78 225.631 249.695C225.335 248.61 224.741 246.437 223.36 244.364C221.977 242.289 219.904 240.317 216.448 239.72C209.634 238.339 206.474 238.635 206.376 238.635C206.279 238.635 198.873 239.129 199.068 245.843C199.266 250.185 202.625 256.506 204.996 260.654ZM200.156 289.386C199.266 291.26 198.181 292.939 197.392 294.122C196.603 295.307 196.011 297.578 195.615 299.951C195.222 302.216 195.222 304.688 195.615 306.462C196.307 309.823 199.863 316.338 200.552 317.524L231.951 310.021L240.246 303.109L241.133 302.414L240.74 303.407L239.555 306.565L250.91 302.612L250.12 292.939L247.256 293.433L246.762 293.531C244.787 295.603 241.331 294.713 241.331 294.713L240.048 294.42L241.331 294.122L246.466 292.939C246.664 292.741 246.86 292.446 247.058 292.052C247.652 290.669 247.847 288.499 247.652 286.323C246.564 284.647 245.381 282.572 244.196 280.399C241.529 275.267 232.841 270.43 231.36 269.638L222.571 280.996C223.954 281.291 228.001 282.376 230.766 283.955C233.134 285.339 234.319 289.288 235.209 292.25C235.703 293.631 235.998 294.816 236.394 295.408C237.577 297.285 238.863 301.625 238.863 301.625L238.96 302.122L238.467 302.018C238.467 302.018 231.061 300.147 219.014 302.412C207.068 304.685 201.439 315.251 201.439 315.251L201.144 315.842L200.946 315.251L199.958 312.977L197.389 305.276V305.181L197.49 305.078C197.49 305.078 200.056 300.738 207.757 295.996C214.669 291.751 229.282 292.641 232.54 292.936L231.455 291.255V291.157C231.455 291.157 230.071 287.009 224.049 284.644C218.027 282.273 203.414 288.097 203.314 288.198L200.153 289.383L200.156 289.386ZM245.278 293.927L243.401 294.32C243.995 294.32 244.586 294.122 245.278 293.927ZM247.551 284.945C247.155 282.672 246.564 280.6 245.674 279.512C245.181 278.722 244.687 277.933 244.193 276.943C242.81 274.575 241.231 271.908 238.467 270.528C237.577 270.134 236.788 269.738 235.898 269.339C232.046 267.465 227.31 265.094 224.049 265.094C220.788 265.094 213.584 267.169 210.226 268.254L226.32 268.452L228.096 268.55L226.417 269.044L210.223 274.575L224.442 276.547L225.134 276.644L231.059 269.041L231.257 268.843L231.455 268.94C231.455 268.94 241.725 274.374 244.784 280.098C245.674 281.777 246.659 283.456 247.549 284.937L247.551 284.945ZM224.939 276.946L224.546 277.146L207.266 286.131C212.103 284.552 220.102 282.477 224.247 284.153C230.269 286.426 231.851 290.474 231.948 290.967L233.429 293.042L233.823 293.634L233.131 293.536C233.131 293.536 215.653 291.86 208.05 296.501C201.238 300.643 198.474 304.596 198.078 305.285L200.547 312.788L201.238 314.467C202.619 312.194 208.248 303.806 218.911 301.826C229.181 299.854 236.291 300.942 238.166 301.335C237.769 300.152 236.782 297.185 235.892 295.709C235.499 295.014 235.103 293.832 234.609 292.448C233.817 289.486 232.634 285.735 230.462 284.549C227.106 282.672 221.971 281.487 221.971 281.487L221.477 281.389L221.773 280.996L224.93 276.946H224.939ZM359.418 282.97L364.157 282.873L381.138 283.367L374.524 269.942L374.427 269.844L374.524 269.747L374.622 269.25L368.204 257.502C368.301 259.775 368.006 262.441 367.119 265.794C364.846 274.979 361.588 280.31 359.415 282.976L359.418 282.97ZM381.832 283.367H382.228L377.685 275.074L381.832 283.367ZM364.157 283.464L358.824 283.562C357.836 284.75 357.144 285.341 357.144 285.341H356.946L252.977 287.018V291.165L382.122 293.338L382.518 286.228L381.431 283.955L364.151 283.461L364.157 283.464ZM382.719 293.338H383.213L383.115 286.329L382.719 293.338ZM383.115 286.131V284.056H382.719L382.128 283.958L383.115 286.033V286.131ZM367.219 252.462C366.527 248.908 365.244 244.267 363.169 242.883C362.578 242.487 361.886 241.896 360.996 241.304C356.849 238.144 349.839 232.912 344.506 232.711C343.519 232.613 342.236 232.513 340.657 232.415C332.858 231.726 319.233 230.541 304.915 235.871C291.388 241.006 272.331 243.276 262.853 244.364C260.287 244.66 258.41 244.858 257.52 245.056C256.137 245.352 254.656 245.748 252.979 246.141C249.819 246.93 245.87 247.921 240.341 248.808C233.823 249.893 230.269 251.276 229.087 251.77L233.627 254.632L241.033 253.842H241.131L363.367 248.71L363.465 248.808C363.465 248.808 365.833 249.399 367.216 252.462H367.219ZM341.647 214.843C337.402 213.66 332.563 212.179 328.317 211.189L328.22 211.286C326.741 212.966 325.358 214.645 323.877 215.434C321.804 216.519 319.729 216.617 317.754 216.223C315.78 215.73 313.805 214.742 311.732 213.459C307.88 211.189 305.214 204.673 304.918 203.981C304.324 203.39 296.919 195.887 291.984 191.145L291.689 191.444L291.491 191.048C291.491 191.048 291.393 190.849 291.293 190.554C289.516 188.875 288.132 187.689 287.736 187.394C286.06 186.507 282.208 186.11 282.208 186.11H282.11C282.013 186.11 269.67 179.199 268.092 178.409C267.5 178.111 267.004 177.815 266.61 177.422C265.919 176.831 265.227 176.334 263.746 175.941C261.771 175.447 258.315 173.868 256.34 172.979C255.749 172.68 255.155 172.385 254.96 172.385C254.07 171.991 248.74 169.422 247.061 168.633L246.862 169.224L246.765 168.533L246.567 168.435L245.086 167.743L246.567 167.841V167.643L217.536 167.74V167.146L243.998 166.061L229.976 113.433L229.778 112.742C228.297 107.409 228.001 106.126 222.373 105.83C213.486 105.336 204.798 105.138 196.207 104.943C187.518 104.745 178.927 104.647 170.041 104.154V103.562L225.923 103.364H226.021C227.6 103.562 228.685 104.449 229.477 105.732C230.266 106.918 230.76 108.496 231.254 110.176C233.722 119.656 236.09 129.037 238.461 138.316C240.829 147.596 243.2 156.977 245.571 166.159L246.162 166.061C243.892 155.398 232.735 105.043 231.452 102.87C230.169 100.597 227.502 100.896 227.502 100.896C227.304 100.896 163.915 100.302 161.349 100.698C159.176 101.094 159.868 103.069 159.868 103.069L170.928 143.65V143.747L170.83 143.845C170.83 143.845 170.336 144.537 169.843 145.82L169.745 146.313C170.339 144.832 172.609 143.351 176.065 142.166C179.226 140.98 183.37 140.093 188.012 139.697C195.219 139.106 199.467 143.351 203.118 147.103C204.203 148.288 205.389 149.376 206.474 150.263C210.917 153.621 223.458 185.118 224.543 187.784C228.294 187.784 282.306 187.684 284.771 187.486C286.054 187.486 286.155 187.684 286.353 188.278C286.551 188.771 286.847 189.661 290.004 191.24C295.73 193.906 308.862 213.853 308.963 213.853L309.95 215.334L308.472 214.246C308.472 214.246 305.311 211.878 301.658 210.888C299.78 210.296 298.299 209.9 296.523 209.309C294.746 208.717 292.475 208.026 289.019 206.84C283.884 205.064 281.318 201.312 279.246 198.35C278.454 197.265 277.765 196.177 277.073 195.488C276.775 195.192 276.479 194.894 276.086 194.501C273.715 192.032 270.853 189.268 268.582 188.576C267.199 188.18 261.966 188.479 256.142 188.969C250.809 189.363 244.888 189.762 240.938 189.661C232.941 189.363 224.152 191.24 224.152 191.24L223.659 191.338L223.756 190.941C223.756 190.941 223.954 188.573 220.794 184.426C219.215 182.253 217.932 179.291 216.844 176.527C215.659 173.762 214.574 171.294 213.389 170.209C211.81 168.825 209.046 167.247 207.168 166.162L214.077 172.976C215.656 174.555 217.731 178.8 219.609 183.639C222.668 191.045 225.433 199.931 225.926 202.299C226.716 206.249 225.728 222.245 225.728 222.245L225.631 223.035L225.137 222.443C225.137 222.443 222.47 218.79 217.338 214.148C214.08 211.086 210.03 209.803 207.76 209.409C209.143 210.101 211.313 211.088 213.584 212.173C215.263 212.963 217.929 215.629 220.398 218.692C223.951 222.84 227.212 227.676 227.605 228.859C228.099 230.736 227.803 247.223 227.706 249.89C228.2 249.792 229.187 249.396 231.162 248.607C232.542 247.915 238.369 246.629 244.589 245.447C251.995 243.968 259.894 242.582 261.375 242.582C263.054 242.582 273.62 241.201 283 239.519C288.925 238.434 294.355 237.252 296.723 236.161C299.884 234.878 306.201 233.299 312.522 232.013C318.94 230.73 325.358 229.843 328.317 230.041C330.49 230.139 333.55 230.041 336.613 230.041C341.946 230.041 347.572 230.041 350.634 230.535C355.078 231.227 365.839 243.567 368.307 246.431C368.405 244.359 368.505 238.532 368.7 233.598C368.898 228.856 367.32 226.784 365.445 224.315C364.949 223.724 364.458 223.132 363.964 222.441C361.496 218.985 358.829 220.268 358.829 220.268H358.731C358.731 220.268 343.527 224.611 340.169 221.255C338.292 219.381 339.776 217.403 341.65 214.837L341.647 214.843ZM327.626 210.994C325.849 210.6 324.267 210.204 322.789 209.908C314.198 208.33 309.362 206.157 309.362 206.157L309.066 206.057L309.163 205.761C309.163 205.761 314.792 188.679 312.126 183.645C310.843 181.176 310.349 179.104 309.953 177.522C309.657 176.239 309.459 175.35 308.965 174.956L308.67 174.859C308.572 174.761 308.374 174.661 308.277 174.661C307.88 174.56 307.783 174.463 307.783 174.362C307.191 174.066 307.387 173.969 308.475 174.066C308.475 174.066 308.572 174.066 308.673 174.164C308.968 174.164 309.166 174.262 309.364 174.46C309.66 174.557 309.956 174.658 310.452 174.856C313.512 175.941 319.93 178.211 326.15 179.793C330.395 180.881 334.345 181.472 337.901 181.67C342.147 181.966 345.8 181.768 348.86 181.374C351.722 180.978 354.291 180.585 356.561 180.683C358.932 180.881 360.904 181.374 362.583 182.755L363.275 183.346C366.14 185.717 368.608 187.79 369.794 191.937C369.498 189.962 368.806 187.988 367.523 186.409C365.35 183.94 364.067 182.459 363.08 181.67C362.193 180.881 361.599 180.683 360.907 180.585C360.809 180.487 360.709 180.487 360.611 180.487C359.92 180.189 359.822 179.893 360.413 179.893C360.511 179.796 360.611 179.796 360.809 179.893H361.008C361.206 179.893 361.599 179.893 361.897 179.991C363.674 180.287 366.932 180.978 368.511 182.657C369.696 183.94 370.583 185.025 371.375 186.211C372.064 187.296 372.655 188.579 373.054 190.161C373.548 191.642 373.844 193.022 374.042 194.208C374.139 193.123 374.24 191.937 374.139 191.048C373.941 189.962 373.45 187.89 372.658 185.915C372.165 184.632 371.476 183.346 370.784 182.557C370.092 181.768 369.202 180.978 368.413 180.485C367.228 179.692 366.143 179.201 365.451 179.003C364.659 178.805 363.08 178.412 361.498 178.214C360.511 178.116 359.524 178.116 358.932 178.312C357.253 178.906 350.046 179.991 349.948 179.991H349.75L349.65 179.793L344.813 167.155V166.957L347.873 154.617C343.332 168.044 339.778 178.708 339.778 178.808L339.184 178.61L353.106 133.485L353.697 133.683L351.722 141.683C358.93 121.045 366.926 99.423 368.804 99.423H368.901C369.002 99.3253 368.703 99.2249 368.407 99.0269C368.011 98.5332 367.222 98.0395 366.335 97.4482C362.09 94.5836 354.09 90.2407 350.637 88.6592C345.7 86.4864 334.641 75.2317 332.568 73.1565L332.471 73.3545L349.354 89.549L349.65 89.8474L349.256 90.0455L341.851 94.3883L353.995 95.3757L354.885 95.4734L354.193 95.9671C354.096 95.9671 351.53 97.5486 341.558 111.171C334.942 120.354 317.467 142.57 307.59 154.023C305.518 156.394 303.839 158.368 302.556 159.551C301.075 161.133 300.185 161.624 300.087 160.834C299.99 160.636 300.087 160.441 300.185 160.045C302.754 153.825 328.323 83.2285 331.782 73.5525L331.288 73.0588C331.19 73.9486 330.892 75.4297 329.904 77.5021C328.624 80.4643 326.647 83.6246 324.571 86.2911C322.301 89.1529 319.933 91.4233 318.452 92.0175C317.565 92.5112 316.675 93.0049 315.788 93.3982C316.48 93.4986 317.071 93.9923 317.169 95.2725C317.367 97.3477 316.873 99.9139 316.477 101.495L323.291 93.1025L324.376 91.6214L323.785 93.3982L296.336 169.821L294.952 173.67C295.348 173.966 296.235 174.758 296.927 176.041L309.169 180.088C309.565 180.088 310.257 180.582 311.44 184.827C312.921 190.258 307.786 201.808 307.786 201.808L307.588 202.202L307.292 201.906C307.292 201.906 297.814 192.922 293.666 189.566C293.173 189.96 292.679 190.453 292.383 190.749C297.518 195.686 305.418 203.585 305.418 203.585V203.683H305.515C305.515 203.78 308.182 210.595 312.034 212.963C314.106 214.148 315.983 215.136 317.86 215.629C319.735 216.023 321.71 215.925 323.587 214.837C324.97 214.145 326.253 212.664 327.634 210.988L327.626 210.994ZM328.711 210.6C333.056 211.685 337.795 213.166 342.041 214.352C343.619 212.279 345.399 209.908 345.694 207.047C346.088 204.283 346.188 203.393 345.792 203.393C345.496 203.295 345.1 203.49 344.509 203.591C343.326 203.886 341.55 204.38 338.783 204.38C334.339 204.38 331.28 207.638 328.713 210.6H328.711ZM349.544 148.001L350.531 143.954L347.078 155.208C347.867 152.938 348.657 150.469 349.546 148.001H349.544ZM332.264 74.0462C328.412 84.612 303.236 154.023 300.768 160.243C300.67 160.539 300.67 160.636 300.67 160.737C300.67 160.737 301.164 160.145 302.148 159.158C303.334 157.875 305.111 155.998 307.183 153.63C316.957 142.177 334.434 120.061 341.05 110.778C348.553 100.608 351.912 97.0521 353.195 95.8694L340.755 94.882L339.767 94.7844L340.654 94.2907L348.654 89.747L332.264 74.049V74.0462ZM318.243 91.521C318.931 91.2253 319.922 90.436 321.007 89.3481C320.809 89.4458 319.032 90.6312 316.859 92.2127C317.353 91.9171 317.749 91.719 318.243 91.521ZM297.312 176.831C297.705 177.916 297.903 179.101 297.705 180.683C297.41 182.755 296.916 184.532 296.422 185.915C295.831 187.494 295.139 188.481 294.447 188.877C294.35 188.975 294.249 189.075 294.054 189.173C298.101 192.333 305.705 199.638 307.384 201.122C308.274 199.148 312.126 189.67 310.84 184.931C309.557 180.39 309.456 180.588 309.456 180.588L309.359 180.786H309.161L297.315 176.836L297.312 176.831ZM297.114 180.582C297.312 178.903 297.013 177.62 296.52 176.532L290.498 174.557H290.397C290.397 174.557 274.008 168.337 271.935 166.561C270.948 165.771 269.96 165.177 268.775 164.784C267.59 164.391 266.011 164.192 264.036 164.092C262.457 164.092 260.973 164.092 259.69 164.192C257.716 164.29 256.036 164.391 254.854 163.994C253.571 163.501 249.719 165.177 247.842 166.067L247.546 167.054C248.04 166.957 248.829 166.957 249.618 166.957C251.395 166.957 250.408 167.551 249.323 168.044L259.294 168.834L264.923 169.327L259.294 169.425C259.197 169.425 255.442 169.523 253.568 169.523C252.285 169.523 250.21 169.127 249.024 168.929C251.297 170.016 254.552 171.498 255.147 171.793C255.442 171.891 255.936 172.089 256.628 172.385C258.603 173.274 261.958 174.853 263.835 175.347C265.512 175.743 266.304 176.334 266.993 176.928C267.386 177.322 267.785 177.62 268.376 177.916C269.958 178.708 281.41 185.025 282.3 185.519C282.794 185.617 286.347 186.013 288.026 186.903C288.42 187.101 289.505 188.088 290.989 189.472C290.791 188.582 290.791 187.692 291.778 187.692C291.976 187.692 292.665 188.088 293.555 188.777C293.753 188.679 293.948 188.481 294.146 188.384C294.64 188.088 295.231 187.098 295.825 185.717C296.319 184.334 296.813 182.655 297.108 180.582H297.114ZM291.881 190.356C292.177 190.06 292.671 189.566 293.164 189.17C292.473 188.579 291.982 188.283 291.784 188.283C291.189 188.283 291.485 189.469 291.784 190.258L291.881 190.356ZM247.153 166.46L246.955 166.558V166.853L247.153 166.46ZM246.363 166.658L245.376 166.856H245.178L245.08 166.561C242.612 157.083 240.244 147.702 237.873 138.422C235.404 129.042 233.036 119.564 230.668 110.282C230.174 108.703 229.778 107.219 228.989 106.034C228.297 104.948 227.31 104.156 225.926 103.961L184.556 104.059C188.408 104.156 192.26 104.257 196.207 104.354C204.795 104.552 213.483 104.653 222.373 105.147C228.495 105.54 228.791 106.923 230.37 112.65L230.568 113.341L244.687 166.265L244.784 166.661H244.391L233.332 167.054H246.464L246.366 166.661L246.363 166.658ZM249.621 167.548C248.731 167.548 247.747 167.646 247.351 167.646L247.25 167.941H248.238C248.829 167.844 250.014 167.548 249.621 167.548ZM269.567 188.283C271.838 189.271 274.306 191.837 276.577 194.11C276.875 194.406 277.171 194.701 277.466 194.997C278.256 195.786 278.947 196.874 279.737 198.057C281.809 200.921 284.28 204.575 289.215 206.252C292.671 207.437 294.843 208.129 296.718 208.72C298.495 209.312 299.878 209.708 301.752 210.299C304.123 210.89 306.293 212.076 307.579 212.963C304.519 208.519 294.447 194.007 289.708 191.736C286.451 190.158 285.957 189.07 285.756 188.479C285.658 188.183 285.658 188.085 284.769 188.183C283.979 188.183 277.759 188.281 269.564 188.281L269.567 188.283ZM168.462 160.243C168.66 155.504 168.956 151.158 169.349 148.592H168.855C168.758 149.086 168.657 149.58 168.459 150.171C168.261 151.356 168.361 155.205 168.459 160.243H168.462ZM168.364 181.963C168.069 180.384 168.069 174.658 168.166 168.337C167.77 159.548 167.572 151.847 167.868 150.07C167.968 149.577 168.166 149.083 168.264 148.589C164.808 148.687 152.563 149.083 148.516 149.183L155.723 149.677L156.019 149.775V149.973C156.019 150.07 157.994 189.764 158.585 194.503C158.981 198.157 159.572 199.538 159.868 199.934L169.742 197.466C169.742 196.378 169.446 191.837 169.05 186.013C168.852 184.334 168.557 182.95 168.361 181.963H168.364ZM171.028 198.353C171.028 198.353 170.635 195.293 170.041 191.739C170.239 195.393 170.434 197.664 170.434 197.664V197.959L170.138 198.057L166.585 198.947C168.163 198.749 169.943 198.749 171.126 198.648L171.028 198.353ZM160.761 200.626C161.254 200.327 161.846 200.132 162.239 199.934L159.771 200.528L159.673 200.626L159.475 200.428C159.475 200.428 158.487 199.343 157.994 194.503C157.402 190.06 155.626 153.825 155.428 150.268L143.874 149.479H143.381L148.714 208.918V209.016H148.123L142 150.759L130.645 151.451C131.535 151.353 132.028 151.353 132.028 151.353H132.324V151.649C132.422 151.847 139.434 214.938 140.619 222.742C141.506 222.349 142.201 221.953 142.792 221.654C144.273 220.075 146.05 218.098 146.05 218.098L146.346 217.802L146.544 218.098C146.544 218.098 147.333 218.89 143.582 221.852C143.384 221.95 143.188 222.05 142.99 222.248C141.902 223.333 140.918 224.22 140.619 224.123C140.522 224.123 140.522 223.925 140.421 223.531C139.038 224.025 137.359 224.616 135.582 225.11C130.645 226.594 125.016 227.877 121.956 228.27C120.869 228.468 120.079 228.862 119.388 229.458C119.388 231.037 119.19 232.122 119.19 232.122V232.22L119.092 232.317L116.526 234.295C116.328 234.789 116.227 235.182 116.032 235.676C115.834 236.072 115.736 236.468 115.538 236.864L165.399 244.565L163.327 228.075C162.437 227.779 158.289 226.496 152.761 225.21C148.22 224.125 147.924 222.449 147.626 220.374C147.428 219.487 147.33 218.597 146.739 217.707C145.95 216.226 146.148 214.55 146.837 212.673C147.824 210.402 149.601 207.934 151.28 206.057C153.453 203.588 157.799 201.811 160.761 200.629V200.626ZM114.749 237.355L113.96 237.257C113.762 237.849 113.17 239.525 112.677 242.094C113.466 240.417 114.155 238.736 114.749 237.355ZM114.057 236.666L114.947 236.764C115.145 236.267 115.243 235.874 115.441 235.478L115.639 235.084L115.047 235.478L114.06 236.666H114.057ZM117.12 270.728C117.12 270.728 115.047 270.235 113.17 267.666C113.564 269.147 113.859 270.134 113.859 270.134L113.957 270.332L113.759 270.43L104.775 276.056L104.677 276.647L158.487 279.018L164.906 279.216L165.201 278.329H163.424L117.117 270.726L117.12 270.728ZM163.33 285.439L164.119 282.574L164.613 279.807L158.49 279.609L104.579 277.241L103.692 283.263V283.361L120.871 283.065H121.167V284.747L141.113 285.043L141.211 284.348L141.802 284.446L141.704 285.141L163.33 285.436V285.439ZM163.427 286.131L141.607 285.735L138.94 301.533L161.157 297.879L163.427 286.128V286.131ZM140.915 285.735L121.167 285.341V288.797L113.664 354.655C115.441 355.642 117.217 356.035 118.997 356.035C120.777 356.035 122.551 355.547 124.33 354.655L140.918 285.737L140.915 285.735ZM103.692 284.449L120.576 284.747V283.659L103.692 283.955V284.449ZM103.89 277.244V277.342L103.988 277.244H103.89ZM116.035 233.899C116.925 231.824 117.616 230.245 118.701 229.16C118.701 227.283 118.406 224.912 117.318 222.742C115.145 218.695 104.878 159.944 104.878 159.844V159.746L104.78 159.155L93.9188 159.847C94.1168 160.441 94.2172 161.624 94.2172 163.796C94.2172 168.139 108.931 233.11 110.507 240.019L114.654 235.084V234.987L116.035 233.902V233.899ZM119.293 228.663C119.686 228.465 120.085 228.27 120.478 228.072L119.984 226.396L106.755 159.057L105.374 159.155L105.472 159.746C105.472 159.844 115.739 218.497 117.812 222.544C118.899 224.516 119.293 226.789 119.293 228.663ZM118.701 230.147C118.107 230.839 117.516 231.924 117.022 233.11L118.601 231.921C118.601 231.626 118.699 230.934 118.699 230.145L118.701 230.147ZM127.094 226.691C127.688 226.594 128.28 226.493 128.773 226.298V226.201L117.814 154.715L115.346 155.602L127.094 226.694V226.691ZM136.475 224.223C137.858 223.827 139.141 223.336 140.327 222.842C138.748 213.66 132.33 156.394 131.836 152.048C130.849 152.048 127.789 152.048 124.726 152.441L136.377 224.025L136.475 224.223ZM141.412 223.04C141.116 223.138 140.918 223.238 140.723 223.336V223.534C140.82 223.534 141.018 223.336 141.412 223.04ZM124.135 152.542C122.258 152.837 120.383 153.233 119 153.825C118.802 153.922 118.607 154.023 118.409 154.12V154.318L129.368 225.805L135.786 223.827L124.135 152.542ZM118.802 153.331C120.185 152.639 122.06 152.243 124.034 151.948V151.652C119.689 152.344 116.035 153.133 114.755 153.922C111.003 156.391 106.362 157.476 106.362 157.476H105.966V157.18C105.966 157.18 105.472 151.058 105.076 151.158H104.384V151.356L105.274 157.772C105.667 157.674 105.966 157.674 106.161 157.574C106.853 157.278 108.038 156.982 109.419 156.586C112.281 155.696 116.032 154.514 118.799 153.328L118.802 153.331ZM124.626 151.85C125.315 151.752 126.009 151.752 126.601 151.652L124.626 151.75V151.847V151.85ZM114.752 155.504C112.975 156.095 111.198 156.689 109.617 157.183C108.233 157.579 107.048 157.875 106.359 158.17C106.161 158.271 105.768 158.271 105.274 158.368L105.371 158.567L106.95 158.469H107.249L107.346 158.667L120.576 226.301L120.969 227.584L126.497 226.597L114.749 155.507L114.752 155.504ZM83.4535 157.281C85.6263 157.381 99.7428 158.07 104.68 157.774L103.89 151.752L83.2554 153.334L83.4535 157.283V157.281ZM129.167 150.865L142.301 150.073H142.597V150.369L144.669 170.413L142.792 149.482L142.594 149.384C140.817 149.582 134.991 150.174 129.164 150.865H129.167ZM143.088 148.79H143.384V148.988L143.78 148.891C143.877 148.891 145.459 148.592 147.333 148.592C149.11 148.592 164.811 148.098 168.364 148.001C168.66 147.111 168.956 146.322 169.251 145.633L169.349 144.645C169.251 144.252 168.264 141.784 165.893 141.585C164.512 141.488 162.537 141.488 160.462 141.585C158.39 141.683 156.119 141.683 154.343 141.585C151.975 141.387 136.176 142.768 125.412 143.758C120.378 144.154 116.529 144.548 115.538 144.548C113.96 144.645 107.344 145.931 100.925 147.412C95.2967 148.695 89.866 150.076 88.0892 150.868C86.4101 151.56 85.3251 152.051 84.6333 152.447C89.177 152.054 104.479 150.67 104.973 150.57C105.862 150.372 106.356 155.409 106.551 156.79C107.639 156.494 111.29 155.406 114.451 153.431C118.303 150.963 142.988 148.79 143.085 148.79H143.088ZM284.677 82.8352L285.07 83.5269C285.859 84.4139 286.649 85.3037 287.438 85.895C289.117 87.1781 291.982 88.7596 294.843 89.3509C296.818 89.6466 298.793 89.549 300.472 88.3635L301.164 87.9675C305.507 84.9076 312.815 79.873 314.098 76.1187C314.787 73.9458 315.874 70.3923 316.664 67.3297C317.353 64.6659 317.849 62.4931 317.849 61.701C317.849 60.814 317.255 56.6663 316.368 52.8144C315.777 50.3459 315.082 48.0754 314.393 46.7923C313.208 44.8175 311.035 43.3365 309.554 42.4495C310.937 44.0282 313.01 46.7923 313.306 48.7671C313.9 51.7293 313.997 53.9022 313.997 53.9022L314.098 55.877L313.406 54.1002C313.406 54.0026 311.431 48.8676 307.384 45.7101C306.198 44.8203 304.915 43.4369 303.535 41.7605C299.585 37.3172 294.352 31.4932 287.834 32.1822C281.614 32.9715 280.133 34.5531 279.145 35.5405C278.652 36.0342 278.256 36.4274 277.664 36.5279C276.677 36.6255 275.098 36.8235 273.517 36.7259C271.938 36.5279 270.259 35.9337 269.269 34.5531C268.58 33.4652 268.184 33.27 268.086 33.6633C267.79 34.355 267.79 35.8361 267.888 37.8109C268.086 39.5877 268.58 41.3644 268.973 42.946C269.071 43.3392 269.171 43.6377 269.269 44.0338L269.467 44.5275H269.366C269.762 45.9109 269.863 47.0936 269.564 47.8857C268.775 49.6625 268.873 52.5243 268.873 52.8227C268.873 52.9204 269.071 53.5145 270.158 54.4015C270.454 54.6971 270.847 54.7947 271.246 54.9956C272.234 55.2912 273.123 55.5869 273.221 57.4641V58.1558C273.319 60.7247 273.517 64.3787 275.394 67.14C277.567 70.2026 279.935 75.4353 280.035 75.6333L281.123 77.5105L281.221 77.6081C281.221 77.7057 282.702 80.3723 284.478 82.7432C284.576 82.8408 284.677 82.8408 284.677 82.8408V82.8352ZM275.098 83.0332C275.69 82.6372 280.428 79.675 282.007 80.2691L280.727 78.0962C279.441 78.0962 272.825 78.1939 270.951 78.1939C269.768 78.1939 268.875 78.3919 267.891 78.5872C266.903 78.8856 265.818 79.0809 264.139 79.1813C260.881 79.3793 254.759 81.845 254.363 82.0431L254.265 82.1407L250.316 84.3135H250.218L254.366 82.0431L254.268 82.1407L251.01 83.4237C250.812 83.7194 250.516 84.0151 250.318 84.3107L248.837 85.1001C249.233 84.7068 249.529 84.3107 249.825 83.9147C251.601 81.8422 253.281 80.1631 254.366 79.1757C254.661 78.88 254.96 78.5816 255.155 78.484C253.674 79.0781 251.205 81.4462 248.441 84.1127C247.652 84.7068 246.96 85.3958 246.171 86.1879C242.812 89.3454 238.272 103.467 236.988 107.515C237.187 108.008 237.382 108.502 237.482 108.898L237.875 107.615H237.973C237.973 107.517 241.527 98.7284 245.577 90.3355C246.564 88.3607 247.649 86.584 248.834 85.1029L250.218 84.3135C248.834 86.0903 247.356 88.1655 246.171 90.634C242.221 98.7284 238.668 107.42 238.47 107.813L237.875 109.885L237.58 110.775L237.284 109.986C237.284 109.888 236.988 109.294 236.693 108.407V108.505C237.086 110.48 246.664 151.554 247.058 144.246C247.551 134.473 266.312 83.7194 266.41 83.5242L266.507 83.3261H266.705L275.098 83.0305V83.0332ZM236.59 106.63C238.171 101.791 242.514 88.7596 245.772 85.697C246.561 85.0053 247.25 84.3135 247.945 83.6246C251.105 80.6624 253.869 78.0963 255.448 77.7002C255.844 77.6026 256.039 77.7002 256.14 77.9958C256.237 78.2915 255.646 78.7852 254.759 79.5746C253.967 80.3639 252.684 81.5494 251.401 82.9328C252.784 82.2411 255.152 80.8604 259.199 78.6848C260.385 77.9958 262.162 77.6974 263.643 77.5021C263.051 77.4045 262.36 77.1089 261.766 76.8104C260.583 76.2191 259.199 76.021 257.816 76.1187C256.335 76.2163 254.756 76.5147 253.077 76.8104C249.819 77.5021 239.647 88.3635 239.647 88.4612L228.49 98.9265C229.279 98.8288 230.562 98.9265 232.043 99.5206C233.524 100.112 235.401 103.863 236.587 106.63H236.59ZM251.401 83.0332L254.165 81.4545L251.401 83.0332ZM248.832 85.1057C247.945 85.5994 248.143 85.499 248.832 85.1057V85.1057ZM326.242 43.2416C326.044 42.5499 325.946 41.8609 325.748 41.1692C325.255 39.4901 324.661 38.207 323.874 38.009C323.182 37.9113 322.393 38.1066 321.604 38.405C320.516 38.7983 319.531 39.5877 318.937 40.1818H318.839C317.754 41.1692 315.286 43.2444 315.877 45.0212C316.173 45.8133 316.667 46.996 317.06 48.1814C317.852 49.8605 318.541 51.7349 318.739 52.6247C318.837 53.2188 318.739 53.8101 318.641 54.4991C318.544 55.5869 318.346 56.7723 319.037 57.5617C319.336 57.9578 319.632 58.153 319.927 58.2534H320.421C320.619 58.1558 320.717 58.1558 320.915 57.9578C321.311 57.6621 321.606 57.0708 321.902 56.181C322.1 55.3916 322.691 54.2062 323.286 52.9232C324.273 50.6527 325.458 47.7909 325.949 45.42C326.047 44.8287 326.147 44.0393 326.245 43.2472L326.242 43.2416Z" fill="#464646"/>
</g>
<defs>
<clipPath id="clip0_18_287">
<rect width="485.884" height="427" fill="white" transform="translate(0.115845)"/>
</clipPath>
</defs>
</svg>
