<svg width="24" height="24" viewBox="0 0 24 24" fill="none" xmlns="http://www.w3.org/2000/svg">
<path d="M11.25 10.7655V7.09625C11.25 6.88342 11.3218 6.70517 11.4655 6.5615C11.609 6.418 11.7872 6.34625 12 6.34625C12.2128 6.34625 12.391 6.418 12.5345 6.5615C12.6782 6.70517 12.75 6.88342 12.75 7.09625V10.7655L14.0577 9.45775C14.1321 9.38342 14.2157 9.32767 14.3087 9.2905C14.4016 9.25333 14.4945 9.23725 14.5875 9.24225C14.6805 9.24742 14.7751 9.26858 14.8712 9.30575C14.9672 9.34292 15.0525 9.39867 15.127 9.473C15.2718 9.62817 15.3468 9.80383 15.352 10C15.357 10.1962 15.282 10.3718 15.127 10.527L12.6328 13.0213C12.5391 13.1147 12.4403 13.1807 12.3365 13.2192C12.2327 13.2577 12.1205 13.277 12 13.277C11.8795 13.277 11.7673 13.2577 11.6635 13.2192C11.5597 13.1807 11.4609 13.1147 11.3672 13.0213L8.873 10.527C8.79867 10.4525 8.74292 10.3688 8.70575 10.276C8.66858 10.183 8.65 10.09 8.65 9.997C8.65 9.90417 8.66858 9.81225 8.70575 9.72125C8.74292 9.63025 8.79867 9.5475 8.873 9.473C9.02817 9.318 9.20642 9.23792 9.40775 9.23275C9.60892 9.22758 9.78708 9.30258 9.94225 9.45775L11.25 10.7655ZM5.30775 20.5C4.80258 20.5 4.375 20.325 4.025 19.975C3.675 19.625 3.5 19.1974 3.5 18.6923V5.30775C3.5 4.80258 3.675 4.375 4.025 4.025C4.375 3.675 4.80258 3.5 5.30775 3.5H18.6923C19.1974 3.5 19.625 3.675 19.975 4.025C20.325 4.375 20.5 4.80258 20.5 5.30775V18.6923C20.5 19.1974 20.325 19.625 19.975 19.975C19.625 20.325 19.1974 20.5 18.6923 20.5H5.30775ZM5.30775 19H18.6923C18.7821 19 18.8558 18.9712 18.9135 18.9135C18.9712 18.8558 19 18.7821 19 18.6923V15.8077H15.7115C15.2757 16.4411 14.7343 16.9327 14.0875 17.2828C13.4407 17.6328 12.7448 17.8077 12 17.8077C11.2552 17.8077 10.5593 17.6328 9.9125 17.2828C9.26567 16.9327 8.72433 16.4411 8.2885 15.8077H5V18.6923C5 18.7821 5.02883 18.8558 5.0865 18.9135C5.14417 18.9712 5.21792 19 5.30775 19ZM12 16.3077C12.5333 16.3077 13.0282 16.1718 13.4845 15.9C13.941 15.6282 14.3013 15.2608 14.5655 14.798C14.659 14.6417 14.7823 14.5208 14.9355 14.4355C15.0888 14.3503 15.2572 14.3077 15.4405 14.3077H19V5.30775C19 5.21792 18.9712 5.14417 18.9135 5.0865C18.8558 5.02883 18.7821 5 18.6923 5H5.30775C5.21792 5 5.14417 5.02883 5.0865 5.0865C5.02883 5.14417 5 5.21792 5 5.30775V14.3077H8.5595C8.74283 14.3077 8.91117 14.3503 9.0645 14.4355C9.21767 14.5208 9.341 14.6417 9.4345 14.798C9.69867 15.2608 10.059 15.6282 10.5155 15.9C10.9718 16.1718 11.4667 16.3077 12 16.3077ZM5.30775 19H5H19H5.30775Z" fill="#FB651E"/>
</svg>
