<svg width="148" height="147" viewBox="0 0 148 147" fill="none" xmlns="http://www.w3.org/2000/svg">
<g clip-path="url(#clip0_717_13754)">
<path d="M135.25 67.375H109.709L129.554 47.53L120.917 38.8325L92.375 67.375H80.125V55.125L108.667 26.5825L99.97 17.9463L80.125 37.7913V12.25H67.875V37.7913L48.03 17.9463L39.3325 26.5825L67.875 55.125V67.375H55.625L27.0825 38.8325L18.4463 47.53L38.2913 67.375H12.75V79.625H38.2913L18.4463 99.47L27.0825 108.167L55.625 79.625H67.875V91.875L39.3325 120.417L48.03 129.054L67.875 109.209V134.75H80.125V109.209L99.97 129.054L108.667 120.417L80.125 91.875V79.625H92.375L120.917 108.167L129.554 99.47L109.709 79.625H135.25V67.375Z" fill="#1B76FF"/>
</g>
<defs>
<clipPath id="clip0_717_13754">
<rect width="147" height="147" fill="white" transform="translate(0.5)"/>
</clipPath>
</defs>
</svg>
