<svg width="16" height="17" viewBox="0 0 16 17" fill="none" xmlns="http://www.w3.org/2000/svg">
<path fill-rule="evenodd" clip-rule="evenodd" d="M0.728556 2.21958C0.837795 1.98414 1.07375 1.8335 1.3333 1.8335H14.6666C14.9262 1.8335 15.1621 1.98414 15.2714 2.21958C15.3806 2.45502 15.3433 2.73246 15.1757 2.93065L9.99997 9.05093V14.5002C9.99997 14.7312 9.88033 14.9458 9.68379 15.0673C9.48724 15.1887 9.24182 15.1998 9.03516 15.0964L6.36849 13.7631C6.14264 13.6502 5.99997 13.4193 5.99997 13.1668V9.05093L0.824255 2.93065C0.656657 2.73246 0.619318 2.45502 0.728556 2.21958ZM2.77017 3.16683L7.17568 8.37635C7.27746 8.4967 7.3333 8.64922 7.3333 8.80683V12.7548L8.66663 13.4215V8.80683C8.66663 8.64922 8.72248 8.4967 8.82425 8.37635L13.2298 3.16683H2.77017Z" fill="#5D6C87"/>
</svg>
