<svg width="24" height="24" viewBox="0 0 24 24" fill="none" xmlns="http://www.w3.org/2000/svg">
<path fill-rule="evenodd" clip-rule="evenodd" d="M20 17.5C20 17.0478 19.9375 16.4089 19.8464 15.7438C19.8071 15.4566 19.6072 15.2773 19.345 15.2546C17.9205 15.1315 15.5646 15 12 15C8.43537 15 6.07946 15.1315 4.65495 15.2546C4.3928 15.2773 4.19293 15.4566 4.15359 15.7438C4.06251 16.4089 4 17.0478 4 17.5C4 17.9522 4.06251 18.5911 4.15359 19.2562C4.19293 19.5434 4.3928 19.7227 4.65495 19.7454C6.07946 19.8685 8.43537 20 12 20C15.5646 20 17.9205 19.8685 19.345 19.7454C19.6072 19.7227 19.8071 19.5434 19.8464 19.2562C19.9375 18.5911 20 17.9522 20 17.5ZM21.8279 15.4724C21.6636 14.2725 20.724 13.3664 19.5174 13.2621C18.027 13.1332 15.6129 13 12 13C8.38715 13 5.97301 13.1332 4.48263 13.2621C3.27603 13.3664 2.33642 14.2725 2.17209 15.4724C2.07784 16.1606 2 16.9082 2 17.5C2 18.0918 2.07784 18.8394 2.17209 19.5276C2.33642 20.7275 3.27603 21.6336 4.48263 21.7379C5.97301 21.8668 8.38715 22 12 22C15.6129 22 18.027 21.8668 19.5174 21.7379C20.724 21.6336 21.6636 20.7275 21.8279 19.5276C21.9222 18.8394 22 18.0918 22 17.5C22 16.9082 21.9222 16.1606 21.8279 15.4724Z" fill="#B1B5C4"/>
<path fill-rule="evenodd" clip-rule="evenodd" d="M20 6.5C20 6.04782 19.9375 5.40893 19.8464 4.74381C19.8071 4.45659 19.6072 4.27732 19.345 4.25465C17.9205 4.13145 15.5646 4 12 4C8.43537 4 6.07946 4.13145 4.65495 4.25465C4.3928 4.27732 4.19293 4.45659 4.15359 4.74381C4.06251 5.40892 4 6.04782 4 6.5C4 6.95218 4.06251 7.59107 4.15359 8.25619C4.19293 8.54341 4.3928 8.72268 4.65495 8.74535C6.07946 8.86855 8.43537 9 12 9C15.5646 9 17.9205 8.86855 19.345 8.74535C19.6072 8.72268 19.8071 8.54341 19.8464 8.25619C19.9375 7.59107 20 6.95218 20 6.5ZM21.8279 4.47244C21.6636 3.27253 20.724 2.36644 19.5174 2.26209C18.027 2.13319 15.6129 2 12 2C8.38715 2 5.97301 2.13319 4.48263 2.26209C3.27603 2.36644 2.33642 3.27253 2.17209 4.47244C2.07784 5.16064 2 5.90816 2 6.5C2 7.09184 2.07784 7.83935 2.17209 8.52756C2.33642 9.72747 3.27603 10.6336 4.48263 10.7379C5.97301 10.8668 8.38715 11 12 11C15.6129 11 18.027 10.8668 19.5174 10.7379C20.724 10.6336 21.6636 9.72747 21.8279 8.52756C21.9222 7.83935 22 7.09184 22 6.5C22 5.90816 21.9222 5.16065 21.8279 4.47244Z" fill="#B1B5C4"/>
</svg>
