<svg width="44" height="44" viewBox="0 0 44 44" fill="none" xmlns="http://www.w3.org/2000/svg">
<circle cx="22" cy="22" r="22" fill="#FFF9F6"/>
<path d="M21 27.9381C17.0537 27.446 14 24.0796 14 20C14 15.5817 17.5817 12 22 12C26.4183 12 30 15.5817 30 20C30 24.0796 26.9463 27.446 23 27.9381V30.0116C26.9463 30.1039 30 30.7351 30 31.5C30 32.3284 26.4183 33 22 33C17.5817 33 14 32.3284 14 31.5C14 30.7351 17.0537 30.1039 21 30.0116V27.9381ZM22 26C25.3137 26 28 23.3137 28 20C28 16.6863 25.3137 14 22 14C18.6863 14 16 16.6863 16 20C16 23.3137 18.6863 26 22 26ZM22 22C20.8954 22 20 21.1046 20 20C20 18.8954 20.8954 18 22 18C23.1046 18 24 18.8954 24 20C24 21.1046 23.1046 22 22 22Z" fill="#FB651E"/>
</svg>
