<svg width="32" height="32" viewBox="0 0 32 32" fill="none" xmlns="http://www.w3.org/2000/svg">
<circle cx="16" cy="16" r="16" fill="#FFF9F6"/>
<path fill-rule="evenodd" clip-rule="evenodd" d="M18.8562 18.6117C19.7182 17.4151 20.3076 16.1 20.3076 14.7689C20.3076 12.3899 18.379 10.4612 15.9999 10.4612C13.6208 10.4612 11.6922 12.3899 11.6922 14.7689C11.6922 16.1 12.2815 17.4151 13.1436 18.6117C13.9991 19.7992 15.0511 20.7691 15.801 21.3834C15.9241 21.4841 16.0757 21.4841 16.1987 21.3834C16.9487 20.7691 18.0007 19.7992 18.8562 18.6117ZM16.9786 22.3355C18.5689 21.033 21.5383 18.1484 21.5383 14.7689C21.5383 11.7101 19.0587 9.23047 15.9999 9.23047C12.9411 9.23047 10.4614 11.7101 10.4614 14.7689C10.4614 18.1484 13.4309 21.033 15.0212 22.3355C15.5978 22.8078 16.402 22.8078 16.9786 22.3355Z" fill="#FB651E"/>
<path fill-rule="evenodd" clip-rule="evenodd" d="M15.9996 13.5384C15.3199 13.5384 14.7689 14.0894 14.7689 14.7692C14.7689 15.4489 15.3199 15.9999 15.9996 15.9999C16.6794 15.9999 17.2304 15.4489 17.2304 14.7692C17.2304 14.0894 16.6794 13.5384 15.9996 13.5384ZM13.5381 14.7692C13.5381 13.4097 14.6402 12.3076 15.9996 12.3076C17.3591 12.3076 18.4612 13.4097 18.4612 14.7692C18.4612 16.1286 17.3591 17.2307 15.9996 17.2307C14.6402 17.2307 13.5381 16.1286 13.5381 14.7692Z" fill="#FB651E"/>
</svg>
