<svg width="134" height="134" viewBox="0 0 134 134" fill="none" xmlns="http://www.w3.org/2000/svg">
<path d="M67 0C30.2575 0 0.4375 29.82 0.4375 66.5625C0.4375 103.305 30.2575 133.125 67 133.125C103.743 133.125 133.562 103.305 133.562 66.5625C133.562 29.82 103.743 0 67 0Z" fill="#7F7F7F"/>
<path d="M66.9375 74.2715C65.6927 74.2715 64.6815 75.2827 64.6815 76.5275C64.6815 77.7723 65.6927 78.7835 66.9375 78.7835C68.1823 78.7835 69.1935 77.7723 69.1935 76.5275C69.1935 75.2827 68.1823 74.2715 66.9375 74.2715Z" fill="white"/>
<path d="M80.4737 60.7344H52.3784C44.2218 60.7344 37.6093 67.3466 37.6093 75.5035C37.6093 89.4366 46.8553 102.385 60.4777 105.311C79.452 109.386 96.2658 94.807 96.2658 76.5264C96.2658 67.8048 89.1955 60.7344 80.4737 60.7344ZM69.1935 82.8791V94.7252C69.1935 95.9723 68.1844 96.9812 66.9375 96.9812C65.6905 96.9812 64.6815 95.9723 64.6815 94.7252V82.8791C62.0613 81.9447 60.1695 79.4639 60.1695 76.5266C60.1695 72.7945 63.2054 69.7586 66.9375 69.7586C70.6696 69.7586 73.7056 72.7945 73.7056 76.5266C73.7056 79.4639 71.8138 81.9446 69.1935 82.8791Z" fill="white"/>
<path d="M66.9375 29C55.7026 29 46.6333 38.0692 46.6333 49.3042V57.1951C48.4599 56.6195 50.3649 56.2228 52.3791 56.2228H55.6575V49.3042C55.6575 43.0776 60.7109 38.0242 66.9375 38.0242C73.1642 38.0242 78.2176 43.0776 78.2176 49.3042V56.2227H80.4736C82.8582 56.2227 85.1142 56.7114 87.2416 57.47V49.3042C87.2418 38.08 78.1504 29 66.9375 29Z" fill="white"/>
</svg>
