<svg width="110" height="47" viewBox="0 0 110 47" fill="none" xmlns="http://www.w3.org/2000/svg">
<rect width="110" height="46.3158" rx="23.1579" fill="#FB651E"/>
<path d="M17.3834 29.9484H11.5789V16.3206H16.2733L16.944 20.2445C17.2061 18.866 17.7534 17.8322 18.5859 17.1429C19.4184 16.4537 20.5978 16.1091 22.1241 16.1091H23.581V21.7247H21.2453C20.7211 21.7247 20.2586 21.756 19.8578 21.8187C19.457 21.8814 19.1178 21.9675 18.8403 22.0772C18.2853 22.3278 17.8998 22.7429 17.684 23.3225C17.4836 23.8864 17.3834 24.6617 17.3834 25.6486V29.9484Z" fill="#FFF9F6"/>
<path d="M34.0946 19.8215C33.0617 19.8215 32.2446 19.9938 31.6433 20.3384C31.0575 20.6674 30.6566 21.1451 30.4408 21.7717H37.5172C37.3476 21.0668 36.9853 20.5656 36.4303 20.2679C35.8753 19.9703 35.0967 19.8215 34.0946 19.8215ZM42.9286 25.6016C42.3581 27.2933 41.3175 28.5151 39.8066 29.267C38.3112 30.0189 36.2915 30.3948 33.7477 30.3948C32.0673 30.3948 30.6566 30.2225 29.5158 29.8779C28.3903 29.5333 27.4884 29.0477 26.8101 28.4211C26.1317 27.7946 25.6461 27.0662 25.3532 26.236C25.0603 25.3901 24.9138 24.4738 24.9138 23.4869C24.9138 22.7664 24.9986 22.0928 25.1682 21.4663C25.3378 20.824 25.5844 20.2131 25.9082 19.6335C26.5865 18.4901 27.6041 17.5894 28.9608 16.9315C30.3329 16.2579 32.0673 15.9211 34.164 15.9211C35.1815 15.9211 36.1065 15.9995 36.9391 16.1561C37.7716 16.3127 38.5116 16.5477 39.1591 16.861C40.4696 17.4719 41.4408 18.3256 42.0729 19.4221C42.7204 20.5029 43.0442 21.756 43.0442 23.1815V24.5208H30.3483C30.5179 25.1943 30.8956 25.7034 31.4814 26.048C32.0827 26.377 32.9538 26.5414 34.0946 26.5414C34.958 26.5414 35.5978 26.4631 36.014 26.3065C36.4457 26.1342 36.7695 25.8992 36.9853 25.6016H42.9286Z" fill="#FFF9F6"/>
<path d="M50.4633 24.0743V29.9484H44.867V16.3206H49.6308L50.1627 19.3751C50.579 18.3413 51.2342 17.5111 52.1284 16.8845C53.0226 16.2423 54.1711 15.9211 55.5741 15.9211C57.5012 15.9211 58.9812 16.4694 60.0142 17.5659C61.0471 18.6624 61.5636 20.1896 61.5636 22.1476V29.9484H56.0135V23.7689C56.0135 22.7037 55.8207 21.9127 55.4353 21.3958C55.0499 20.8632 54.3561 20.5969 53.354 20.5969C52.3211 20.5969 51.5811 20.8788 51.134 21.4428C50.6869 21.991 50.4633 22.8682 50.4633 24.0743Z" fill="#FFF9F6"/>
<path d="M71.7444 30.3948C69.216 30.3948 67.1656 30.0189 65.593 29.267C64.0359 28.5151 63.0878 27.2463 62.7486 25.4606H68.6456C68.846 25.9462 69.216 26.2908 69.7556 26.4945C70.2952 26.6981 71.1354 26.7999 72.2763 26.7999C73.2322 26.7999 73.8874 26.7059 74.242 26.5179C74.612 26.33 74.797 26.0872 74.797 25.7896C74.797 25.6956 74.7661 25.6094 74.7045 25.5311C74.6582 25.4528 74.5811 25.3823 74.4732 25.3196C74.2728 25.1943 73.8643 25.1003 73.2476 25.0377C72.6463 24.9594 71.7521 24.8967 70.565 24.8497C69.6708 24.8027 68.8691 24.7322 68.16 24.6382C67.4508 24.5443 66.8264 24.4268 66.2868 24.2858C65.2076 24.0038 64.429 23.5809 63.9511 23.017C63.4732 22.4531 63.2342 21.709 63.2342 20.7849C63.2342 19.2968 63.8817 18.1141 65.1768 17.2369C66.4872 16.3597 68.4452 15.9211 71.0506 15.9211C73.6099 15.9211 75.6064 16.3049 77.0402 17.0725C78.4894 17.8243 79.4761 19.0226 80.0002 20.6674H74.3807C74.1957 20.1661 73.7949 19.8215 73.1782 19.6335C72.5769 19.4456 71.8215 19.3516 70.9119 19.3516C69.9406 19.3516 69.2854 19.4456 68.9462 19.6335C68.6225 19.8215 68.4606 20.0486 68.4606 20.3149C68.4606 20.4089 68.4914 20.5029 68.5531 20.5969C68.6148 20.6752 68.7073 20.7457 68.8306 20.8084C69.0773 20.9337 69.4935 21.0355 70.0794 21.1138C70.6806 21.1921 71.5055 21.2548 72.5538 21.3018C73.5097 21.3488 74.3653 21.4193 75.1207 21.5132C75.8762 21.6072 76.5314 21.7325 77.0864 21.8892C78.181 22.1868 78.9519 22.6254 79.399 23.205C79.8615 23.7689 80.0927 24.5129 80.0927 25.4371C80.0927 25.9227 80.0156 26.3848 79.8615 26.8234C79.7227 27.2463 79.5069 27.6458 79.214 28.0217C78.6435 28.7579 77.7416 29.3375 76.5083 29.7604C75.2903 30.1834 73.7024 30.3948 71.7444 30.3948Z" fill="#FFF9F6"/>
<path d="M88.5926 26.8939C88.9935 26.8939 89.3789 26.8626 89.7489 26.7999C90.1343 26.7216 90.4966 26.6041 90.8358 26.4475C91.5141 26.1655 92.0537 25.7896 92.4546 25.3196C92.8708 24.8497 93.079 24.3485 93.079 23.8159V23.6749C92.894 23.8629 92.5702 24.0273 92.1077 24.1683C91.6606 24.2936 91.0748 24.4033 90.3502 24.4973C89.5022 24.5756 88.8547 24.6617 88.4076 24.7557C87.9759 24.8341 87.6522 24.9359 87.4363 25.0612C87.2513 25.1708 87.1049 25.2961 86.997 25.4371C86.9045 25.5781 86.8582 25.7426 86.8582 25.9305V25.954C86.8582 26.2517 86.9893 26.4866 87.2513 26.6589C87.5288 26.8156 87.9759 26.8939 88.5926 26.8939ZM93.7034 29.9484L93.1946 27.1993C92.6858 28.1392 91.8687 28.9067 90.7433 29.502C89.6179 30.0972 88.1764 30.3948 86.4188 30.3948C84.6304 30.3948 83.2815 30.0815 82.3719 29.455C81.4777 28.8127 81.0306 27.8572 81.0306 26.5884V26.5649C81.0306 25.7661 81.2002 25.0768 81.5393 24.4973C81.8939 23.902 82.4335 23.4321 83.1581 23.0875C83.374 22.9778 83.5975 22.8839 83.8288 22.8055C84.06 22.7116 84.299 22.6332 84.5457 22.5706C85.039 22.4296 85.648 22.3121 86.3726 22.2181C87.1126 22.1085 88.0453 22.0145 89.1708 21.9362C89.7104 21.8892 90.1806 21.85 90.5814 21.8187C90.9823 21.7717 91.3214 21.7247 91.5989 21.6777C92.1694 21.5994 92.5548 21.4976 92.7552 21.3723C92.9556 21.2313 93.0558 21.0512 93.0558 20.8319C93.0558 20.5186 92.8786 20.2445 92.524 20.0095C92.1694 19.7745 91.491 19.657 90.4889 19.657C89.271 19.657 88.4153 19.798 87.922 20.08C87.4286 20.3619 87.1588 20.7614 87.1126 21.2783H81.4237C81.6241 19.4612 82.4798 18.122 83.9906 17.2604C85.5169 16.3832 87.5982 15.9446 90.2345 15.9446C92.9942 15.9446 95.0446 16.3911 96.3859 17.2839C97.7426 18.1611 98.421 19.6962 98.421 21.8892V29.9484H93.7034Z" fill="#FFF9F6"/>
</svg>
