<svg width="14" height="22" viewBox="0 0 14 22" fill="none" xmlns="http://www.w3.org/2000/svg">
<g clip-path="url(#clip0_1612_36718)">
<path d="M8.24371 12.5996C8.61768 13.5205 7.99733 14.491 7.0688 14.655C6.10399 14.8255 5.18743 13.9439 5.32776 12.9613C5.38039 12.5948 5.54943 12.2647 5.70571 11.9334C6.03024 11.2453 6.41297 10.5907 6.83238 9.91272C7.23186 10.5447 7.59068 11.1653 7.90324 11.8122C8.02763 12.0691 8.13607 12.3346 8.24371 12.5996Z" fill="#BDEBFB"/>
<path d="M13.4067 8.38616C13.4067 8.191 13.3976 7.99584 13.3565 7.80594C13.0882 6.56632 11.8383 5.50408 10.592 5.49681C8.08991 5.48266 5.58739 5.47822 3.08527 5.50044C2.24485 5.50812 1.54317 5.89479 0.981431 6.53036C0.577567 6.98774 0.323209 7.51422 0.280151 8.13524V16.5605C0.32281 16.7419 0.31683 16.9314 0.374639 17.1116C0.766144 18.3294 1.94185 19.2021 3.20448 19.2029C5.60095 19.2041 7.99742 19.2013 10.3939 19.2054C10.7702 19.2062 11.1311 19.1431 11.4819 19.0102C12.5508 18.6062 13.4271 17.4789 13.4147 16.2465C13.3888 13.6267 13.4071 11.0064 13.4067 8.38616ZM9.53872 13.1277C9.53115 14.5923 8.42082 15.7697 6.97759 15.8712C5.64002 15.9649 4.38617 14.9378 4.1637 13.5867C4.07041 13.0202 4.18563 12.4969 4.39454 11.9822C4.90206 10.7308 5.60892 9.59426 6.35366 8.4803C6.58449 8.13443 7.05653 8.10696 7.28258 8.44353C8.13337 9.70941 8.95744 10.9935 9.43785 12.4646C9.51041 12.6868 9.55467 12.9184 9.53872 13.1277Z" fill="#34CDFA"/>
<path d="M10.9649 0.919922C11.3301 1.12437 11.4712 1.38094 11.3843 1.68317C11.3038 1.96358 11.0841 2.13328 10.7763 2.1252C10.6364 2.12156 10.6021 2.15995 10.6041 2.30055C10.6125 2.93168 10.6041 3.56321 10.6109 4.19473C10.6121 4.31918 10.5818 4.35352 10.4586 4.34948C10.1612 4.33938 9.86294 4.33938 9.56552 4.34948C9.44153 4.35352 9.41203 4.31837 9.41362 4.19433C9.4204 3.56321 9.41203 2.93168 9.4204 2.30015C9.42239 2.15752 9.38532 2.1252 9.24698 2.1256C7.6387 2.13085 6.03082 2.13085 4.42254 2.1256C4.2838 2.1252 4.24752 2.15873 4.24951 2.30055C4.25788 2.93168 4.24951 3.56321 4.25629 4.19473C4.25748 4.31918 4.22718 4.35352 4.10399 4.34948C3.80657 4.33938 3.50836 4.33938 3.21094 4.34948C3.08696 4.35352 3.05745 4.31837 3.05865 4.19433C3.06543 3.55634 3.05785 2.91834 3.06503 2.27995C3.06622 2.1551 3.03513 2.12399 2.91273 2.1252C2.57266 2.12843 2.33145 1.93893 2.27325 1.64438C2.21384 1.35064 2.35976 1.10013 2.67751 0.948205C2.68827 0.942953 2.69465 0.929619 2.70342 0.919922C5.45711 0.919922 8.2108 0.919922 10.9649 0.919922Z" fill="#34CDFA"/>
<path d="M9.43786 12.465C8.95745 10.9939 8.13338 9.70979 7.28259 8.44391C7.05654 8.10733 6.5845 8.13481 6.35366 8.48067C5.60893 9.59464 4.90207 10.7312 4.39454 11.9826C4.18564 12.4973 4.07042 13.0206 4.16371 13.587C4.38617 14.9382 5.64002 15.9653 6.9776 15.8715C8.42083 15.7701 9.53115 14.5927 9.53873 13.128C9.55467 12.9187 9.51042 12.6872 9.43786 12.465ZM7.0689 14.6553C6.10409 14.8258 5.18752 13.9442 5.32786 12.9616C5.38048 12.5951 5.54952 12.265 5.70581 11.9337C6.03033 11.2456 6.41307 10.591 6.83248 9.91303C7.23196 10.545 7.59077 11.1656 7.90334 11.8125C8.02773 12.0694 8.13617 12.3349 8.24381 12.5999C8.61777 13.5208 7.99743 14.4913 7.0689 14.6553Z" fill="#BDEBFB"/>
<path d="M6.83734 20.3497C8.0286 20.3497 9.22026 20.3537 10.4115 20.3448C10.5825 20.3436 10.6276 20.3921 10.6101 20.5549C10.5957 20.6878 10.6093 20.8232 10.6069 20.9577C10.6009 21.2988 10.3521 21.5574 10.0176 21.5578C7.89305 21.5598 5.76848 21.5598 3.6435 21.5578C3.31898 21.5574 3.06701 21.2992 3.06223 20.9711C3.05904 20.7711 2.99405 20.5076 3.09293 20.3876C3.19579 20.2624 3.4649 20.3521 3.66065 20.3513C4.71955 20.3476 5.77844 20.3497 6.83734 20.3497Z" fill="#34CDFA"/>
<path d="M6.83404 4.34629C6.77464 4.34629 6.71444 4.35033 6.65543 4.34549C6.51948 4.33417 6.31217 4.41054 6.26353 4.31437C6.19615 4.18225 6.22485 3.98629 6.24838 3.82305C6.29303 3.51719 6.58965 3.30951 6.90341 3.33941C7.19086 3.36688 7.4197 3.62103 7.42967 3.92285C7.44362 4.34629 7.44362 4.34629 7.03258 4.34629C6.966 4.34629 6.89982 4.34629 6.83404 4.34629Z" fill="#34CDFA"/>
</g>
<defs>
<clipPath id="clip0_1612_36718">
<rect width="13.1345" height="20.64" fill="white" transform="translate(0.280029 0.920044)"/>
</clipPath>
</defs>
</svg>
