<svg width="16" height="16" viewBox="0 0 16 16" fill="none" xmlns="http://www.w3.org/2000/svg">
<path d="M11.3893 10.541C13.1218 8.71241 13.0919 5.82531 11.2998 4.03317C9.4774 2.21073 6.52261 2.21073 4.70017 4.03317C2.90803 5.82531 2.87823 8.71241 4.61075 10.541C5.31842 9.41488 6.5718 8.66634 8 8.66634C9.4282 8.66634 10.6816 9.41488 11.3893 10.541ZM8 15.8183L3.75736 11.5757C1.41421 9.23247 1.41421 5.43351 3.75736 3.09037C6.10051 0.747221 9.89947 0.747221 12.2427 3.09037C14.5858 5.43351 14.5858 9.23247 12.2427 11.5757L8 15.8183ZM8 7.99967C6.8954 7.99967 6 7.10427 6 5.99967C6 4.89511 6.8954 3.99967 8 3.99967C9.1046 3.99967 10 4.89511 10 5.99967C10 7.10427 9.1046 7.99967 8 7.99967Z" fill="#F05B2A"/>
</svg>
