<svg width="60" height="60" viewBox="0 0 60 60" fill="none" xmlns="http://www.w3.org/2000/svg">
<circle cx="30" cy="30" r="30" fill="#FBFBFB"/>
<path d="M41.4 23.7992C44.0509 23.7992 46.2 21.6502 46.2 18.9992C46.2 16.3483 44.0509 14.1992 41.4 14.1992C38.749 14.1992 36.6 16.3483 36.6 18.9992C36.6 21.6502 38.749 23.7992 41.4 23.7992Z" stroke="#64748B" stroke-width="2" stroke-linecap="round" stroke-linejoin="round"/>
<path d="M22.2 31.8008H30.2" stroke="#64748B" stroke-width="2" stroke-linecap="round" stroke-linejoin="round"/>
<path d="M22.2 38.1992H36.6" stroke="#64748B" stroke-width="2" stroke-linecap="round" stroke-linejoin="round"/>
<path d="M33.4 14.1992H25.4C17.4 14.1992 14.2 17.3992 14.2 25.3992V34.9992C14.2 42.9992 17.4 46.1992 25.4 46.1992H35C43 46.1992 46.2 42.9992 46.2 34.9992V26.9992" stroke="#64748B" stroke-width="2" stroke-linecap="round" stroke-linejoin="round"/>
</svg>
