<svg width="16" height="20" viewBox="0 0 16 20" fill="none" xmlns="http://www.w3.org/2000/svg">
<path d="M14.2565 0.401123H7.28022C6.92747 0.401026 6.60178 0.590177 6.42706 0.896615L5.57717 2.38309C5.4607 2.58727 5.27417 2.74231 5.05215 2.81952L1.45573 4.10583C1.06521 4.24638 0.804281 4.61614 0.802734 5.03118V18.4488C0.802734 18.7099 0.90645 18.9603 1.09106 19.1449C1.27568 19.3295 1.52607 19.4333 1.78715 19.4333H14.2565C14.8002 19.4333 15.2409 18.9925 15.2409 18.4488V1.38554C15.2409 0.841863 14.8002 0.401123 14.2565 0.401123ZM11.9234 2.18949L11.5953 2.84577C11.541 2.95737 11.4273 3.02767 11.3032 3.02624H7.2835C7.16662 3.02554 7.05894 2.96272 7.0008 2.86132C6.94267 2.75992 6.94286 2.63526 7.0013 2.53403L7.37538 1.87775C7.43423 1.77582 7.54316 1.71322 7.66086 1.71368H11.6314C11.7451 1.71403 11.8505 1.77324 11.91 1.87017C11.9695 1.9671 11.9746 2.08792 11.9234 2.18949Z" fill="#F05B2A"/>
<path d="M12.9438 16.2174V6.89826L13.8731 5.50432C13.9382 5.40678 13.9463 5.28194 13.8943 5.17682C13.8424 5.07171 13.7383 5.00229 13.6213 4.99471C13.5043 4.98713 13.3922 5.04255 13.3271 5.14008L12.5501 6.30761H3.49339L2.7157 5.14107C2.65063 5.04353 2.53847 4.98811 2.42147 4.99569C2.30447 5.00327 2.2004 5.07269 2.14846 5.17781C2.09652 5.28293 2.10461 5.40777 2.16967 5.5053L3.09962 6.89826V16.2174L2.17033 17.6114C2.06975 17.7622 2.11044 17.9659 2.26122 18.0665C2.412 18.1671 2.61577 18.1264 2.71635 17.9756L3.49339 16.8081H12.5501L13.3277 17.9746C13.4283 18.1254 13.6321 18.1661 13.7829 18.0655C13.9337 17.9649 13.9744 17.7612 13.8738 17.6104L12.9438 16.2174Z" fill="#FFE0C6"/>
<path d="M1.45886 2.66514C1.136 2.66636 0.860208 2.43256 0.80856 2.11385C0.756913 1.79514 0.944753 1.4862 1.25148 1.3854L3.8766 0.433789C4.22093 0.319254 4.59292 0.50554 4.70745 0.849871C4.82199 1.1942 4.6357 1.56619 4.29137 1.68072L1.66625 2.63233C1.59933 2.65433 1.52931 2.6654 1.45886 2.66514Z" fill="#F05B2A"/>
<path d="M4.28413 1.6842L4.75009 2.92786L2.27919 3.81055L1.81323 2.57675L4.28413 1.6842Z" fill="#F05B2A"/>
<path d="M9.38013 9.21838L9.17997 9.8845C9.15351 9.97457 9.08872 10.0484 9.00285 10.0863C8.91698 10.1243 8.81876 10.1225 8.73436 10.0814C8.28388 9.86482 7.75939 9.86482 7.30891 10.0814C7.22451 10.1225 7.12629 10.1243 7.04042 10.0863C6.95455 10.0484 6.88976 9.97457 6.8633 9.8845L6.66313 9.21838C6.5601 8.87407 6.7554 8.51137 7.09956 8.40787C7.70182 8.23286 8.34145 8.23286 8.94371 8.40787C9.28787 8.51137 9.48317 8.87407 9.38013 9.21838Z" fill="#F05B2A"/>
<path d="M5.03195 12.0437L5.7089 11.8839C5.80011 11.8622 5.8962 11.8818 5.97171 11.9373C6.04722 11.9929 6.0945 12.0788 6.10103 12.1723C6.13858 12.6706 6.40088 13.1248 6.81375 13.4064C6.89138 13.4589 6.94206 13.5428 6.95236 13.6359C6.96266 13.729 6.93154 13.822 6.86724 13.8901L6.39045 14.3964C6.14409 14.6572 5.73321 14.6695 5.47166 14.424C5.01918 13.9898 4.69941 13.4359 4.54958 12.8269C4.46702 12.4775 4.68277 12.1272 5.03195 12.0437Z" fill="#F05B2A"/>
<path d="M9.65284 14.3963L9.17605 13.89C9.11175 13.8219 9.08063 13.7289 9.09093 13.6358C9.10122 13.5427 9.1519 13.4588 9.22953 13.4063C9.64241 13.1247 9.9047 12.6705 9.94225 12.1722C9.9487 12.0783 9.99621 11.9921 10.0721 11.9365C10.148 11.8809 10.2446 11.8616 10.336 11.8837L11.013 12.0436C11.3627 12.1265 11.5791 12.477 11.4967 12.8268C11.3468 13.4358 11.0271 13.9897 10.5746 14.4239C10.4488 14.5427 10.2809 14.6066 10.108 14.6014C9.93504 14.5963 9.77127 14.5225 9.65284 14.3963Z" fill="#F05B2A"/>
<path d="M8.02164 12.5424C8.38409 12.5424 8.67792 12.2486 8.67792 11.8861C8.67792 11.5237 8.38409 11.2299 8.02164 11.2299C7.65918 11.2299 7.36536 11.5237 7.36536 11.8861C7.36536 12.2486 7.65918 12.5424 8.02164 12.5424Z" fill="#F05B2A"/>
</svg>
