<svg width="17" height="20" viewBox="0 0 17 20" fill="none" xmlns="http://www.w3.org/2000/svg">
<path d="M13.1747 1.73059L12.6907 2.71403L15.1249 3.91205V5.11321H12.9327V6.2093H15.1249V7.30889H12.9327V8.40497H15.1249V11.9272C15.1249 12.3805 14.7561 12.7493 14.3028 12.7493C13.8495 12.7493 13.4807 12.3805 13.4807 11.9272V9.97982H12.3846V11.9272C12.3846 12.9849 13.2451 13.8453 14.3028 13.8453C15.3605 13.8453 16.2209 12.9849 16.2209 11.9272V3.22985L13.1747 1.73059Z" fill="white"/>
<path d="M1.64319 0.400024H13.4809V16.7302H1.64319V0.400024Z" fill="#384949"/>
<path d="M9.77826 12.4762C9.77826 13.6984 8.78411 14.6929 7.56198 14.6929L7.53933 14.6925C6.32743 14.6804 5.34534 13.691 5.34534 12.4762C5.34534 11.751 5.7487 11.2007 6.01541 10.8368L6.02637 10.8226L7.56198 8.86536L9.10819 10.8368C9.3749 11.2007 9.77826 11.751 9.77826 12.4762Z" fill="white"/>
<path d="M0.259155 15.6477H14.8645V19.1201H0.259155V15.6477Z" fill="#384949"/>
<path d="M3.83936 2.22253H11.2843V7.73327H3.83936V2.22253Z" fill="white"/>
</svg>
