<svg width="44" height="44" viewBox="0 0 44 44" fill="none" xmlns="http://www.w3.org/2000/svg">
<circle cx="22" cy="22" r="22" fill="#FFF9F6"/>
<g clip-path="url(#clip0_5762_65738)">
<path fill-rule="evenodd" clip-rule="evenodd" d="M14.6476 12.3524C15.9385 11.0615 18.0735 11.2132 19.1689 12.6737L20.9872 15.0981C21.8829 16.2925 21.7642 17.9638 20.7085 19.0194L19.3679 20.36C19.4978 20.6982 19.9255 21.4402 21.2279 22.7426C22.5303 24.045 23.2724 24.4727 23.6106 24.6026L24.9511 23.2621C26.0068 22.2064 27.6781 22.0876 28.8724 22.9834L31.2968 24.8017C32.7573 25.8971 32.9091 28.0321 31.6181 29.323C31.1984 29.7427 31.1274 29.8137 30.427 30.5141C29.7132 31.2279 28.1976 31.8951 26.663 31.9618C24.2617 32.0662 21 31 16.9853 26.9853C12.9706 22.9706 11.9043 19.7088 12.0087 17.3075C12.0668 15.9717 12.4915 14.5046 13.4621 13.5491C14.1569 12.8431 14.2472 12.7528 14.6476 12.3524ZM14.0069 17.3944C13.9345 19.0589 14.636 21.8076 18.3995 25.5711C22.163 29.3346 24.9116 30.0361 26.5762 29.9637C28.13 29.8961 28.9636 29.1453 29.0128 29.0999L30.2039 27.9088C30.6342 27.4785 30.5837 26.7668 30.0968 26.4017L27.6724 24.5834C27.2743 24.2848 26.7172 24.3244 26.3653 24.6763C25.8352 25.2065 25.4732 25.5737 24.7648 26.2795C23.2932 27.7456 20.7741 25.1172 19.8137 24.1569C18.9311 23.2743 16.2415 20.6752 17.6896 19.2099C17.6925 19.207 18.0825 18.817 19.2943 17.6052C19.6462 17.2533 19.6858 16.6962 19.3872 16.2981L17.5689 13.8737C17.2038 13.3869 16.4921 13.3363 16.0618 13.7666C15.6657 14.1627 15.2175 14.6109 14.8719 14.9589C14.1605 15.6752 14.0449 16.5188 14.0069 17.3944Z" fill="#FB651E"/>
</g>
<defs>
<clipPath id="clip0_5762_65738">
<rect width="24" height="24" fill="white" transform="translate(10 10)"/>
</clipPath>
</defs>
</svg>
