<svg width="52" height="52" viewBox="0 0 52 52" fill="none" xmlns="http://www.w3.org/2000/svg">
<circle cx="26" cy="26" r="26" fill="#FFF9F6"/>
<path d="M24.4933 29.445L22.4817 38.4818C22.4198 38.7707 22.2702 39.0079 22.0329 39.1936C21.7957 39.3793 21.5223 39.4721 21.2128 39.4721C20.8002 39.4721 20.4701 39.3174 20.2225 39.0079C19.9749 38.6984 19.8924 38.3477 19.9749 37.9557L23.1316 22.0175L20.9033 22.8841V25.8551C20.9033 26.2058 20.7847 26.4998 20.5474 26.7371C20.3102 26.9743 20.0161 27.093 19.6654 27.093C19.3147 27.093 19.0207 26.9743 18.7834 26.7371C18.5461 26.4998 18.4275 26.2058 18.4275 25.8551V22.0794C18.4275 21.8318 18.4945 21.61 18.6287 21.414C18.7628 21.218 18.9433 21.0684 19.1702 20.9653L24.679 18.6132C24.9678 18.4895 25.2721 18.4172 25.5919 18.3966C25.9117 18.376 26.216 18.4172 26.5049 18.5204C26.7937 18.6236 27.0671 18.768 27.325 18.9537C27.5829 19.1394 27.7944 19.3766 27.9594 19.6655L29.1974 21.6461C29.4656 22.0588 29.7802 22.4508 30.1413 22.8222C30.5023 23.1935 30.9098 23.5133 31.3637 23.7815C31.6526 23.9466 31.9724 24.0962 32.3231 24.2303C32.6738 24.3644 33.0246 24.4624 33.3753 24.5243C33.7054 24.5862 33.9788 24.7358 34.1955 24.973C34.4121 25.2103 34.5204 25.5043 34.5204 25.8551C34.5204 26.2058 34.3966 26.4946 34.149 26.7216C33.9014 26.9486 33.6023 27.0414 33.2515 27.0001C32.0962 26.8351 31.0594 26.474 30.1413 25.917C29.2232 25.3599 28.4237 24.6894 27.7428 23.9053L26.9691 27.7119L29.1974 29.8164C29.3212 29.9402 29.414 30.0794 29.4759 30.2342C29.5378 30.3889 29.5687 30.5488 29.5687 30.7139V38.2342C29.5687 38.585 29.4501 38.879 29.2128 39.1162C28.9756 39.3535 28.6816 39.4721 28.3308 39.4721C27.9801 39.4721 27.6861 39.3535 27.4488 39.1162C27.2115 38.879 27.0929 38.585 27.0929 38.2342V31.4257L24.4933 29.445ZM27.7119 17.8086C27.031 17.8086 26.4482 17.5662 25.9633 17.0813C25.4785 16.5965 25.236 16.0136 25.236 15.3328C25.236 14.6519 25.4785 14.0691 25.9633 13.5842C26.4482 13.0994 27.031 12.8569 27.7119 12.8569C28.3927 12.8569 28.9756 13.0994 29.4604 13.5842C29.9453 14.0691 30.1877 14.6519 30.1877 15.3328C30.1877 16.0136 29.9453 16.5965 29.4604 17.0813C28.9756 17.5662 28.3927 17.8086 27.7119 17.8086Z" fill="#FB651E"/>
</svg>
