<svg width="75" height="75" viewBox="0 0 75 75" fill="none" xmlns="http://www.w3.org/2000/svg">
<circle cx="36.9873" cy="36.8203" r="36.8203" fill="#F0F0F0"/>
<path d="M25.3352 38.7623C27.5387 38.7623 29.3279 38.0268 30.6905 37.1255C30.9754 36.9371 31.3469 36.9371 31.6318 37.1255C32.9944 38.0268 34.7837 38.7623 36.9872 38.7623C39.1907 38.7623 40.9799 38.0268 42.3425 37.1255C42.6274 36.9371 42.9989 36.9371 43.2838 37.1255C44.6464 38.0268 46.4356 38.7623 48.6392 38.7623C49.4964 38.7623 50.3626 38.6897 51.2092 38.5183C51.863 38.386 52.5232 38.8579 52.5232 39.5249V48.4723C52.5232 51.6899 49.9148 54.2983 46.6972 54.2983H42.8132C41.7406 54.2983 40.8712 53.4288 40.8712 52.3563V46.5303C40.8712 44.3852 39.1322 42.6463 36.9872 42.6463C34.8421 42.6463 33.1032 44.3852 33.1032 46.5303V52.3563C33.1032 53.4288 32.2337 54.2983 31.1612 54.2983H27.2772C24.0596 54.2983 21.4512 51.6899 21.4512 48.4723V39.5249C21.4512 38.8579 22.1114 38.386 22.7652 38.5183C23.6118 38.6897 24.4779 38.7623 25.3352 38.7623Z" fill="#777E91"/>
<path d="M23.1998 21.7461C24.4984 20.1467 26.4932 19.3423 28.5534 19.3423H45.4221C47.4823 19.3423 49.4771 20.1467 50.7757 21.7461C52.4385 23.7943 54.4657 26.7612 54.4657 29.0523C54.4657 32.9363 52.5237 34.8783 48.6397 34.8783C45.7753 34.8783 43.9671 32.7658 43.2152 31.6567C43.0356 31.3918 42.5919 31.3918 42.4123 31.6567C41.6604 32.7658 39.8522 34.8783 36.9878 34.8783C34.1233 34.8783 32.3151 32.7658 31.5632 31.6567C31.3836 31.3918 30.9399 31.3918 30.7603 31.6567C30.0084 32.7658 28.2002 34.8783 25.3358 34.8783C21.4518 34.8783 19.5098 32.9363 19.5098 29.0523C19.5098 26.7612 21.537 23.7943 23.1998 21.7461Z" fill="#777E91"/>
<path d="M56.5629 44.8523C58.178 43.9198 60.1679 43.9198 61.783 44.8523L70.1251 49.6686C71.7402 50.6011 72.7352 52.3244 72.7352 54.1894V63.822C72.7352 65.687 71.7402 67.4102 70.1251 68.3427L61.783 73.159C60.1679 74.0915 58.178 74.0915 56.5629 73.159L48.2208 68.3427C46.6057 67.4102 45.6108 65.687 45.6108 63.822V54.1894C45.6108 52.3244 46.6057 50.6011 48.2208 49.6686L56.5629 44.8523Z" fill="#F53139"/>
<path d="M54.545 65.0566C54.2285 65.0566 53.912 64.94 53.6621 64.6901C53.179 64.207 53.179 63.4074 53.6621 62.9243L63.091 53.4954C63.5741 53.0123 64.3737 53.0123 64.8568 53.4954C65.3399 53.9785 65.3399 54.7781 64.8568 55.2612L55.428 64.6901C55.1947 64.94 54.8616 65.0566 54.545 65.0566Z" fill="white"/>
<path d="M63.9739 65.0566C63.6574 65.0566 63.3409 64.94 63.091 64.6901L53.6621 55.2612C53.179 54.7781 53.179 53.9785 53.6621 53.4954C54.1452 53.0123 54.9449 53.0123 55.428 53.4954L64.8568 62.9243C65.3399 63.4074 65.3399 64.207 64.8568 64.6901C64.607 64.94 64.2904 65.0566 63.9739 65.0566Z" fill="white"/>
</svg>
