<svg width="75" height="74" viewBox="0 0 75 74" fill="none" xmlns="http://www.w3.org/2000/svg">
<circle cx="37.4536" cy="36.8203" r="36.8203" fill="#F0F0F0"/>
<path d="M25.8015 38.7623C28.005 38.7623 29.7942 38.0268 31.1568 37.1255C31.4417 36.9371 31.8132 36.9371 32.0981 37.1255C33.4608 38.0268 35.25 38.7623 37.4535 38.7623C39.657 38.7623 41.4462 38.0268 42.8088 37.1255C43.0937 36.9371 43.4652 36.9371 43.7501 37.1255C45.1128 38.0268 46.902 38.7623 49.1055 38.7623C49.9627 38.7623 50.8289 38.6897 51.6755 38.5183C52.3293 38.386 52.9895 38.8579 52.9895 39.5249V48.4723C52.9895 51.6899 50.3811 54.2983 47.1635 54.2983H43.2795C42.2069 54.2983 41.3375 53.4288 41.3375 52.3563V46.5303C41.3375 44.3852 39.5985 42.6463 37.4535 42.6463C35.3084 42.6463 33.5695 44.3852 33.5695 46.5303V52.3563C33.5695 53.4288 32.7 54.2983 31.6275 54.2983H27.7435C24.5259 54.2983 21.9175 51.6899 21.9175 48.4723V39.5249C21.9175 38.8579 22.5777 38.386 23.2315 38.5183C24.0781 38.6897 24.9442 38.7623 25.8015 38.7623Z" fill="#777E91"/>
<path d="M23.6652 21.7461C24.9637 20.1467 26.9585 19.3423 29.0187 19.3423H45.8875C47.9477 19.3423 49.9425 20.1467 51.241 21.7461C52.9038 23.7943 54.9311 26.7612 54.9311 29.0523C54.9311 32.9363 52.9891 34.8783 49.1051 34.8783C46.2406 34.8783 44.4325 32.7658 43.6805 31.6567C43.5009 31.3918 43.0572 31.3918 42.8776 31.6567C42.1257 32.7658 40.3175 34.8783 37.4531 34.8783C34.5887 34.8783 32.7805 32.7658 32.0285 31.6567C31.8489 31.3918 31.4052 31.3918 31.2256 31.6567C30.4737 32.7658 28.6655 34.8783 25.8011 34.8783C21.9171 34.8783 19.9751 32.9363 19.9751 29.0523C19.9751 26.7612 22.0024 23.7943 23.6652 21.7461Z" fill="#777E91"/>
<path d="M56.0966 43.9202C57.7117 42.9877 59.7016 42.9877 61.3167 43.9202L69.6588 48.7365C71.2739 49.669 72.2689 51.3923 72.2689 53.2572V62.8899C72.2689 64.7548 71.2739 66.4781 69.6588 67.4106L61.3167 72.2269C59.7016 73.1594 57.7117 73.1594 56.0966 72.2269L47.7545 67.4106C46.1394 66.4781 45.1445 64.7548 45.1445 62.8899V53.2572C45.1445 51.3923 46.1394 49.669 47.7545 48.7365L56.0966 43.9202Z" fill="#45B36B"/>
<path d="M53.4873 58.0732L56.9674 61.5533L63.9275 54.5932" stroke="white" stroke-width="2.61005" stroke-miterlimit="10" stroke-linecap="round" stroke-linejoin="round"/>
</svg>
