<svg width="16" height="16" viewBox="0 0 16 16" fill="none" xmlns="http://www.w3.org/2000/svg">
<path d="M6.88669 5.00749C7.22002 4.90749 7.58669 4.84082 8.00002 4.84082C9.84002 4.84082 11.3334 6.33415 11.3334 8.17415C11.3334 10.0142 9.84002 11.5075 8.00002 11.5075C6.16002 11.5075 4.66669 10.0142 4.66669 8.17415C4.66669 7.48749 4.87335 6.85415 5.22668 6.32082" stroke="#777E91" stroke-linecap="round" stroke-linejoin="round"/>
<path d="M6.41333 5.10048L7.52 3.82715" stroke="#777E91" stroke-linecap="round" stroke-linejoin="round"/>
<path d="M6.41333 5.10059L7.70667 6.04725" stroke="#777E91" stroke-linecap="round" stroke-linejoin="round"/>
<path d="M5.99998 14.6663H9.99998C13.3333 14.6663 14.6666 13.333 14.6666 9.99967V5.99967C14.6666 2.66634 13.3333 1.33301 9.99998 1.33301H5.99998C2.66665 1.33301 1.33331 2.66634 1.33331 5.99967V9.99967C1.33331 13.333 2.66665 14.6663 5.99998 14.6663Z" stroke="#777E91" stroke-linecap="round" stroke-linejoin="round"/>
</svg>
