<svg width="16" height="16" viewBox="0 0 16 16" fill="none" xmlns="http://www.w3.org/2000/svg">
<path fill-rule="evenodd" clip-rule="evenodd" d="M9.03511 2.85954C7.93878 2.60239 6.79785 2.60239 5.70156 2.85954C4.29138 3.19033 3.1903 4.29141 2.85951 5.70159C2.60236 6.79788 2.60236 7.93881 2.85951 9.03514C3.1903 10.4453 4.29138 11.5464 5.70156 11.8771C6.79785 12.1343 7.93878 12.1343 9.03511 11.8771C10.4453 11.5464 11.5464 10.4453 11.8771 9.03514C12.1343 7.93881 12.1343 6.79788 11.8771 5.70159C11.5464 4.29141 10.4453 3.19033 9.03511 2.85954ZM5.39707 1.56144C6.69365 1.25731 8.04305 1.25731 9.33958 1.56144C11.2428 2.00788 12.7288 3.4939 13.1752 5.3971C13.4794 6.69368 13.4794 8.04308 13.1752 9.33961C13.0048 10.0659 12.6831 10.7315 12.2445 11.3017L14.4714 13.5286C14.7317 13.7889 14.7317 14.2111 14.4714 14.4714C14.211 14.7317 13.7889 14.7317 13.5286 14.4714L11.3017 12.2445C10.7314 12.6831 10.0659 13.0049 9.33958 13.1753C8.04305 13.4794 6.69365 13.4794 5.39707 13.1753C3.49387 12.7289 2.00785 11.2428 1.56141 9.33961C1.25728 8.04308 1.25728 6.69368 1.56141 5.3971C2.00785 3.4939 3.49387 2.00788 5.39707 1.56144Z" fill="#D1D1D1"/>
</svg>
