<svg width="17" height="16" viewBox="0 0 17 16" fill="none" xmlns="http://www.w3.org/2000/svg">
<path d="M2.30668 11.3455L3.46668 9.02551C3.78668 8.37884 3.78668 7.62551 3.46668 6.97884L2.30668 4.65218C1.31335 2.66551 3.45335 0.56551 5.42001 1.60551L6.44668 2.15218C6.59335 2.22551 6.70668 2.34551 6.76668 2.49218L10.56 10.9255C10.7133 11.2722 10.5733 11.6788 10.24 11.8522L5.41335 14.3922C3.45335 15.4322 1.31335 13.3322 2.30668 11.3455Z" fill="#05A357"/>
<path opacity="0.4" d="M11.3733 10.4003L8.88666 4.8803C8.60666 4.2603 9.27332 3.63363 9.87332 3.95363L13.72 5.9803C15.3533 6.8403 15.3533 9.17363 13.72 10.0336L12.36 10.747C11.9933 10.9336 11.5467 10.7803 11.3733 10.4003Z" fill="#05A357"/>
</svg>
