<svg width="20" height="20" viewBox="0 0 20 20" fill="none" xmlns="http://www.w3.org/2000/svg">
<path d="M3.47489 12.75L7.24989 16.525C8.79989 18.075 11.3166 18.075 12.8749 16.525L16.5332 12.8667C18.0832 11.3167 18.0832 8.80004 16.5332 7.24171L12.7499 3.47504C11.9582 2.68337 10.8666 2.25837 9.74989 2.31671L5.58322 2.51671C3.91656 2.59171 2.59156 3.91671 2.50822 5.57504L2.30822 9.74171C2.25822 10.8667 2.68322 11.9584 3.47489 12.75Z" stroke="#1E75BB" stroke-width="1.5" stroke-linecap="round" stroke-linejoin="round"/>
<path d="M7.91659 10C9.06718 10 9.99992 9.0673 9.99992 7.91671C9.99992 6.76611 9.06718 5.83337 7.91659 5.83337C6.76599 5.83337 5.83325 6.76611 5.83325 7.91671C5.83325 9.0673 6.76599 10 7.91659 10Z" stroke="#1E75BB" stroke-width="1.5" stroke-linecap="round"/>
</svg>
