<svg width="130" height="130" viewBox="0 0 130 130" fill="none" xmlns="http://www.w3.org/2000/svg">
<g clip-path="url(#clip0_6228_29963)">
<path d="M65.0427 130C91.1281 130.024 112.294 108.898 112.319 82.8124C112.332 68.447 105.807 54.8563 94.5885 45.8835V29.5447C94.5877 13.2267 81.3593 -0.000767815 65.0415 3.34282e-08C54.4869 0.000511932 44.7339 5.63114 39.4563 14.7716C37.7056 17.5256 38.5187 21.1778 41.273 22.9285C44.027 24.6791 47.6791 23.866 49.4298 21.1117C49.5189 20.9715 49.6021 20.8276 49.6791 20.6807C54.5634 12.1955 65.4016 9.27637 73.8868 14.1609C79.389 17.328 82.7772 23.1959 82.7703 29.5445V38.9342C58.5841 29.102 31.0069 40.7379 21.1746 64.9239C11.3423 89.1098 22.978 116.687 47.1642 126.52C52.8416 128.828 58.914 130.01 65.0427 130ZM65.0427 47.2718C84.6239 47.2718 100.498 63.1455 100.498 82.7267C100.498 102.308 84.6239 118.182 65.0427 118.182C45.4616 118.182 29.5879 102.308 29.5879 82.7267C29.6076 63.1537 45.4698 47.2915 65.0427 47.2718Z" fill="#45B36B"/>
<path d="M59.1338 86.9985V100.454C59.1338 103.717 61.7793 106.363 65.0429 106.363C68.3065 106.363 70.952 103.717 70.952 100.454V86.9985C76.6046 83.7349 78.5414 76.5069 75.2778 70.8545C72.0142 65.2019 64.7862 63.2651 59.1338 66.5287C53.4814 69.7923 51.5444 77.0201 54.808 82.6727C55.8453 84.4695 57.3373 85.9614 59.1338 86.9985Z" fill="#45B36B"/>
</g>
<defs>
<clipPath id="clip0_6228_29963">
<rect width="130" height="130" fill="white"/>
</clipPath>
</defs>
</svg>
