<svg width="24" height="24" viewBox="0 0 24 24" fill="none" xmlns="http://www.w3.org/2000/svg">
<path d="M24 12C24 18.627 18.627 24 12 24C5.37297 24 0 18.627 0 12C0 5.37297 5.37297 0 12 0C18.627 0 24 5.37297 24 12Z" fill="#F1F2F5"/>
<path d="M4.38619 19.1735C4.97924 18.8862 5.55067 18.6052 6.12827 18.3364C6.29661 18.2592 6.47885 18.2036 6.66109 18.1696C6.77074 18.1496 6.89275 18.1897 7.0441 18.2052C7.28966 18.0368 7.50279 17.8067 7.69584 17.5056C8.11129 16.8585 7.97229 16.1588 8.0248 15.4778C8.05877 15.0361 8.01862 14.5897 8.05414 14.148C8.08503 13.7681 7.99854 13.4222 7.8719 13.0762C7.84565 13.0036 7.80858 12.931 7.79932 12.8554C7.77461 12.653 7.69275 12.5696 7.46572 12.5635C7.34217 12.5604 7.17229 12.4229 7.11051 12.3025C6.76611 11.6168 6.50047 10.9032 6.47113 10.1233C6.45414 9.68007 6.58387 9.52872 7.01167 9.38818C7.08271 9.36501 7.17229 9.19513 7.15067 9.12254C6.96843 8.48779 7.0441 7.83451 7.00858 7.19204C6.99314 6.90169 7.03329 6.59745 7.10742 6.31482C7.28194 5.64146 7.48426 4.97583 7.6943 4.31173C7.73908 4.17119 7.8441 4.04146 7.94912 3.93181C8.27499 3.58895 8.57461 3.20285 8.95607 2.93722C9.27576 2.71328 9.69584 2.63142 10.0742 2.49397C10.4001 2.37505 10.7275 2.2654 11.0565 2.15575C11.129 2.13104 11.2078 2.11251 11.2819 2.11251C11.5707 2.10942 11.8626 2.14957 12.1468 2.11251C12.8495 2.01675 13.3962 2.34571 13.9399 2.7071C14.2364 2.90478 14.5422 3.09011 14.848 3.2739C15.1893 3.4793 15.3453 3.83915 15.5738 4.13722C15.6974 4.29783 15.8827 4.44764 15.9229 4.62833C15.9955 4.95266 16.2009 5.23837 16.1792 5.59359C16.1669 5.79127 16.2287 5.99359 16.2626 6.19281C16.3507 6.721 16.4742 7.24455 16.5175 7.77583C16.553 8.22061 16.5036 8.67312 16.4742 9.11945C16.4634 9.27235 16.4495 9.36656 16.6379 9.43451C16.9298 9.53953 16.9468 9.86231 16.9437 10.0893C16.9391 10.5032 16.8665 10.9264 16.7568 11.3279C16.6673 11.6523 16.4789 11.9488 16.3352 12.2592C16.2534 12.4353 16.1406 12.548 15.9244 12.5434C15.8626 12.5434 15.7746 12.6345 15.7391 12.704C15.6711 12.8415 15.6171 12.9913 15.5831 13.1426C15.5491 13.2971 15.5352 13.4592 15.5306 13.6183C15.5213 13.938 15.5182 14.2561 15.5213 14.5758C15.5275 15.0978 15.5275 15.6198 15.5599 16.1403C15.5769 16.3998 15.6495 16.6592 15.7221 16.911C15.7406 16.9743 15.8518 17.0469 15.9229 17.05C16.2565 17.0639 16.4372 17.2507 16.6163 17.5179C16.7939 17.782 16.9885 18.0523 17.39 18.0863C17.6989 18.1125 18.0047 18.2546 18.2982 18.3766C18.6935 18.5403 19.0765 18.7334 19.4657 18.914C19.5862 18.9696 19.6804 19.0407 19.5568 19.1751C19.3468 19.4052 19.1445 19.6415 18.9159 19.8515C18.0928 20.6113 17.1136 21.1364 16.1082 21.5967C15.5337 21.8592 14.902 22.0214 14.2812 22.1557C13.6835 22.287 13.0611 22.3025 12.4572 22.4106C11.5012 22.5835 10.5885 22.2994 9.65569 22.2036C8.97924 22.1341 8.4109 21.7758 7.7885 21.5596C6.76766 21.2059 5.93831 20.5403 5.09044 19.9117C4.82016 19.711 4.6163 19.4206 4.38464 19.1751" fill="#D7D7D7"/>
</svg>
