<svg width="52" height="53" viewBox="0 0 52 53" fill="none" xmlns="http://www.w3.org/2000/svg">
<circle cx="26" cy="26.5" r="26" fill="#FFF9F6"/>
<path d="M17.9361 36.2274C16.9227 36.2274 16.0601 35.8766 15.3483 35.1751C14.6365 34.4737 14.2806 33.6071 14.2806 32.5755H14.0949C13.5843 32.5755 13.1471 32.3937 12.7835 32.0301C12.4199 31.6664 12.238 31.2293 12.238 30.7186V18.3085C12.238 17.8134 12.4237 17.3801 12.7951 17.0087C13.1665 16.6373 13.5997 16.4517 14.0949 16.4517H30.1569C30.6675 16.4517 31.1047 16.6335 31.4683 16.9971C31.8319 17.3608 32.0138 17.7979 32.0138 18.3085V21.62H34.7991C34.9538 21.62 35.0931 21.6509 35.2169 21.7128C35.3407 21.7747 35.449 21.8675 35.5418 21.9913L39.2865 26.974C39.3484 27.0513 39.3948 27.1364 39.4258 27.2293C39.4567 27.3221 39.4722 27.4227 39.4722 27.531V31.6471C39.4722 31.9101 39.3832 32.1306 39.2053 32.3086C39.0273 32.4865 38.8068 32.5755 38.5438 32.5755H37.2749C37.2749 33.6071 36.9202 34.4737 36.2108 35.1751C35.5015 35.8766 34.6401 36.2274 33.6267 36.2274C32.6133 36.2274 31.7507 35.8766 31.0389 35.1751C30.3271 34.4737 29.9712 33.6071 29.9712 32.5755H21.5843C21.5843 33.6071 21.2296 34.4737 20.5203 35.1751C19.8109 35.8766 18.9495 36.2274 17.9361 36.2274ZM17.9325 34.3705C18.4276 34.3705 18.8506 34.1951 19.2013 33.8444C19.5521 33.4936 19.7274 33.0707 19.7274 32.5755C19.7274 32.0804 19.5521 31.6574 19.2013 31.3067C18.8506 30.9559 18.4276 30.7805 17.9325 30.7805C17.4373 30.7805 17.0143 30.9559 16.6636 31.3067C16.3128 31.6574 16.1375 32.0804 16.1375 32.5755C16.1375 33.0707 16.3128 33.4936 16.6636 33.8444C17.0143 34.1951 17.4373 34.3705 17.9325 34.3705ZM14.0949 18.3085V30.7186H14.7758C15.1265 30.1616 15.5705 29.718 16.1078 29.3879C16.6451 29.0578 17.2434 28.8927 17.9028 28.8927C18.5622 28.8927 19.1652 29.0629 19.712 29.4034C20.2587 29.7438 20.7074 30.1822 21.0582 30.7186H30.1569V18.3085H14.0949ZM33.623 34.3705C34.1182 34.3705 34.5412 34.1951 34.8919 33.8444C35.2427 33.4936 35.418 33.0707 35.418 32.5755C35.418 32.0804 35.2427 31.6574 34.8919 31.3067C34.5412 30.9559 34.1182 30.7805 33.623 30.7805C33.1279 30.7805 32.7049 30.9559 32.3542 31.3067C32.0034 31.6574 31.8281 32.0804 31.8281 32.5755C31.8281 33.0707 32.0034 33.4936 32.3542 33.8444C32.7049 34.1951 33.1279 34.3705 33.623 34.3705ZM32.0138 28.0571H37.7701L34.3348 23.4768H32.0138V28.0571Z" fill="#FB651E"/>
</svg>
