<svg width="16" height="16" viewBox="0 0 16 16" fill="none" xmlns="http://www.w3.org/2000/svg">
<path d="M9.99992 15.1663H5.99992C2.37992 15.1663 0.833252 13.6197 0.833252 9.99967V5.99967C0.833252 2.37967 2.37992 0.833008 5.99992 0.833008H9.99992C13.6199 0.833008 15.1666 2.37967 15.1666 5.99967V9.99967C15.1666 13.6197 13.6199 15.1663 9.99992 15.1663ZM5.99992 1.83301C2.92658 1.83301 1.83325 2.92634 1.83325 5.99967V9.99967C1.83325 13.073 2.92658 14.1663 5.99992 14.1663H9.99992C13.0733 14.1663 14.1666 13.073 14.1666 9.99967V5.99967C14.1666 2.92634 13.0733 1.83301 9.99992 1.83301H5.99992Z" fill="#777E91"/>
<path d="M10.0001 10.7541H6.72008C5.31342 10.7541 4.16675 9.60746 4.16675 8.2008C4.16675 6.79413 5.31342 5.64746 6.72008 5.64746H11.2334C11.5068 5.64746 11.7334 5.87413 11.7334 6.14746C11.7334 6.42079 11.5068 6.64746 11.2334 6.64746H6.72008C5.86675 6.64746 5.16675 7.3408 5.16675 8.2008C5.16675 9.0608 5.86008 9.75413 6.72008 9.75413H10.0001C10.2734 9.75413 10.5001 9.98079 10.5001 10.2541C10.5001 10.5275 10.2734 10.7541 10.0001 10.7541Z" fill="#777E91"/>
<path d="M10.2867 7.68053C10.16 7.68053 10.0333 7.63387 9.93333 7.53387C9.74 7.34054 9.74 7.02053 9.93333 6.8272L10.6267 6.13387L9.93333 5.44054C9.74 5.2472 9.74 4.9272 9.93333 4.73387C10.1267 4.54053 10.4467 4.54053 10.64 4.73387L11.6867 5.78053C11.88 5.97387 11.88 6.29387 11.6867 6.4872L10.64 7.53387C10.54 7.6272 10.4133 7.68053 10.2867 7.68053Z" fill="#777E91"/>
</svg>
