<svg width="135" height="134" viewBox="0 0 135 134" fill="none" xmlns="http://www.w3.org/2000/svg">
<path d="M67.5 0.4375C30.7575 0.4375 0.9375 30.2575 0.9375 67C0.9375 103.743 30.7575 133.562 67.5 133.562C104.243 133.562 134.062 103.743 134.062 67C134.062 30.2575 104.243 0.4375 67.5 0.4375ZM67.5 106.938C62.6188 106.938 58.625 102.944 58.625 98.0625C58.625 93.1813 62.6188 89.1875 67.5 89.1875C72.3812 89.1875 76.375 93.1813 76.375 98.0625C76.375 102.944 72.3812 106.938 67.5 106.938ZM77.6619 38.1119L74.6888 73.7006C74.3781 77.4281 71.2719 80.3125 67.5 80.3125C63.7281 80.3125 60.6219 77.4281 60.3112 73.7006L57.3381 38.1119C56.85 32.1656 61.5094 27.0625 67.5 27.0625C73.18 27.0625 77.7062 31.6775 77.7062 37.2687C77.7062 37.535 77.7063 37.8456 77.6619 38.1119Z" fill="#FFC502"/>
</svg>
