<?xml version="1.0" standalone="no"?>
<!DOCTYPE svg PUBLIC "-//W3C//DTD SVG 20010904//EN"
 "http://www.w3.org/TR/2001/REC-SVG-20010904/DTD/svg10.dtd">
<svg version="1.0" xmlns="http://www.w3.org/2000/svg"
 width="304.000000pt" height="72.000000pt" viewBox="0 0 304.000000 72.000000"
 preserveAspectRatio="xMidYMid meet">

<g transform="translate(0.000000,72.000000) scale(0.100000,-0.100000)"
fill="#000000" stroke="none">
<path d="M188 532 c-71 -71 -78 -82 -78 -117 0 -37 8 -47 133 -172 97 -97 139
-133 157 -133 18 0 60 36 157 133 121 121 133 136 133 169 0 20 -8 45 -17 57
l-18 22 -55 -56 c-30 -30 -62 -55 -70 -55 -17 0 -70 50 -70 65 0 5 26 36 58
68 l57 58 -24 20 c-32 26 -71 24 -115 -6 l-37 -25 -37 25 c-62 42 -85 35 -174
-53z m157 16 l26 -23 -90 -89 c-89 -89 -90 -90 -111 -71 -12 11 -20 31 -20 50
0 26 12 43 64 93 36 35 73 62 85 62 11 0 32 -10 46 -22z"/>
<path d="M511 456 c-9 -10 -8 -16 4 -26 19 -16 41 1 32 24 -8 20 -21 20 -36 2z"/>
<path d="M801 456 c-8 -10 -2 -38 28 -117 37 -98 41 -104 69 -107 29 -3 30 -2
67 102 37 104 40 136 11 136 -9 0 -24 -30 -41 -82 -15 -46 -31 -86 -34 -90 -4
-5 -17 27 -30 69 -29 100 -45 120 -70 89z"/>
<path d="M1092 462 c-9 -6 -12 -37 -10 -118 l3 -109 75 0 c60 0 75 3 75 15 0
11 -14 16 -53 18 -51 3 -53 4 -50 30 3 24 8 27 46 30 34 3 43 7 40 20 -2 12
-15 18 -46 20 -37 3 -42 6 -42 28 0 22 4 24 49 24 53 0 70 12 51 35 -14 16
-115 21 -138 7z"/>
<path d="M1322 462 c-9 -6 -12 -37 -10 -118 3 -101 4 -109 23 -109 18 0 21 8
25 69 l5 69 50 -71 c56 -79 68 -88 90 -66 11 12 15 39 15 112 0 102 -8 129
-34 119 -11 -5 -16 -24 -18 -79 l-3 -73 -49 70 c-62 87 -69 92 -94 77z"/>
<path d="M1612 457 c-9 -10 -12 -47 -10 -118 l3 -104 60 -3 c46 -2 68 2 92 17
65 41 66 146 1 194 -36 27 -129 35 -146 14z m123 -57 c23 -26 25 -84 3 -106
-8 -9 -31 -17 -49 -17 l-34 -2 -3 73 -3 72 34 0 c21 0 41 -8 52 -20z"/>
<path d="M1944 461 c-53 -23 -83 -97 -64 -156 30 -92 165 -108 213 -25 9 15
17 40 17 54 0 26 -1 26 -70 26 -63 0 -70 -2 -70 -19 0 -17 8 -20 48 -23 l47
-3 -22 -22 c-46 -46 -117 -15 -117 50 0 66 54 95 119 65 20 -9 28 -9 37 0 33
33 -82 77 -138 53z"/>
<path d="M2198 464 c-5 -4 -8 -59 -8 -121 0 -113 0 -114 23 -111 17 2 23 11
27 41 l5 38 40 -40 c21 -23 45 -41 51 -41 26 0 25 23 -1 50 l-28 29 32 26 c36
31 41 70 12 106 -15 19 -30 24 -82 27 -35 2 -67 0 -71 -4z m116 -67 c9 -15 7
-21 -8 -33 -11 -8 -30 -14 -43 -14 -20 0 -23 5 -23 36 0 34 1 35 31 32 18 -2
37 -11 43 -21z"/>
<path d="M2513 458 c-15 -19 -73 -186 -73 -209 0 -30 44 -22 48 9 3 19 9 22
48 22 38 0 46 -3 54 -25 9 -25 43 -35 54 -16 6 9 -60 196 -77 219 -5 6 -17 12
-27 12 -10 0 -22 -6 -27 -12z m44 -98 l10 -40 -29 0 c-24 0 -29 4 -24 16 3 9
9 27 12 40 9 35 18 30 31 -16z"/>
<path d="M2733 463 c-9 -3 -13 -37 -13 -120 0 -113 0 -114 23 -111 20 3 22 10
27 72 l5 70 28 -37 c15 -20 33 -37 40 -37 7 0 23 17 37 38 l25 37 3 -65 c3
-68 14 -92 38 -83 12 4 14 27 12 122 -3 107 -4 116 -22 116 -12 0 -34 -19 -54
-45 -19 -25 -37 -46 -41 -47 -3 -2 -17 14 -31 34 -42 61 -50 67 -77 56z"/>
</g>
</svg>
