<?xml version="1.0" standalone="no"?>
<!DOCTYPE svg PUBLIC "-//W3C//DTD SVG 20010904//EN"
 "http://www.w3.org/TR/2001/REC-SVG-20010904/DTD/svg10.dtd">
<svg version="1.0" xmlns="http://www.w3.org/2000/svg"
 width="512.000000pt" height="512.000000pt" viewBox="0 0 512.000000 512.000000"
 preserveAspectRatio="xMidYMid meet">
<metadata>
Created by potrace 1.14, written by Peter Selinger 2001-2017
</metadata>
<g transform="translate(0.000000,512.000000) scale(0.100000,-0.100000)"
fill="#000000" stroke="none">
<path d="M2375 4884 c-16 -2 -70 -9 -120 -15 -550 -66 -1090 -359 -1463 -794
-383 -447 -579 -1007 -559 -1595 30 -864 524 -1627 1302 -2011 642 -316 1407
-316 2050 1 866 427 1383 1345 1294 2300 -25 276 -107 568 -228 815 -335 684
-984 1159 -1746 1280 -95 15 -463 28 -530 19z m270 -1329 c240 -63 365 -221
365 -464 l0 -71 -410 0 c-321 0 -410 -3 -410 -12 0 -27 40 -76 76 -94 32 -16
61 -19 160 -19 115 0 122 1 160 28 l40 27 187 0 c147 0 187 -3 187 -13 0 -24
-70 -132 -108 -166 -51 -47 -162 -97 -257 -117 -107 -22 -342 -22 -445 0 -236
50 -360 197 -360 426 0 138 50 260 141 345 90 83 184 124 331 145 85 12 269 4
343 -15z m1332 0 c101 -30 185 -120 221 -234 14 -48 17 -99 17 -356 l0 -300
-180 0 -180 0 -5 255 c-6 283 -7 290 -73 330 -42 26 -137 26 -193 1 -31 -14
-47 -30 -65 -67 -23 -47 -24 -60 -27 -286 l-4 -238 -179 0 -179 0 0 445 0 445
154 0 154 0 6 -27 c3 -16 11 -58 17 -95 l11 -68 37 58 c46 70 124 126 206 147
71 17 185 13 262 -10z m-2237 -169 l0 -183 -132 -5 c-247 -9 -268 -38 -268
-363 l0 -175 -190 0 -190 0 0 445 0 445 155 0 c85 0 155 -3 155 -7 0 -12 30
-185 36 -213 6 -22 8 -20 20 21 44 148 151 212 362 218 l52 1 0 -184z m-70
-943 c170 -33 308 -137 345 -260 l6 -23 -181 0 c-182 0 -182 0 -202 25 -11 14
-41 31 -70 40 -60 18 -201 20 -247 4 -60 -21 -62 -68 -4 -90 13 -5 112 -15
221 -24 193 -14 318 -37 380 -69 42 -21 89 -79 101 -123 39 -138 -31 -274
-174 -339 -206 -94 -621 -77 -795 34 -71 45 -118 109 -145 200 l-6 22 191 0
192 0 27 -29 c38 -41 95 -53 222 -49 89 2 111 6 128 22 28 25 23 57 -10 73
-14 7 -99 17 -190 23 -290 19 -391 43 -462 109 -60 55 -80 142 -54 232 41 138
166 217 378 239 103 10 249 3 349 -17z m1282 -7 c133 -36 221 -112 253 -218
12 -41 15 -113 15 -360 l0 -309 -152 3 -153 3 -14 83 c-8 45 -17 82 -20 82 -3
0 -16 -15 -28 -34 -29 -45 -131 -112 -208 -135 -140 -44 -330 -36 -435 17 -41
20 -62 40 -85 76 -26 44 -30 58 -30 125 0 131 55 205 186 251 71 24 141 35
354 55 192 19 235 31 235 69 0 31 -32 62 -72 70 -49 10 -169 7 -213 -5 -42
-11 -95 -54 -95 -76 0 -10 -39 -13 -185 -13 -178 0 -185 1 -185 20 0 32 36
118 65 156 52 68 177 131 307 153 90 16 383 7 460 -13z"/>
<path d="M2305 3305 c-22 -8 -58 -33 -80 -57 l-40 -43 118 -3 c64 -1 169 -1
232 0 l115 3 -18 34 c-30 55 -80 76 -192 79 -64 1 -108 -3 -135 -13z"/>
<path d="M2827 1934 c-21 -8 -91 -21 -154 -30 -158 -21 -203 -41 -203 -89 0
-44 34 -60 125 -60 75 1 90 4 151 35 73 37 129 100 122 137 -3 19 -5 19 -41 7z"/>
</g>
</svg>
